<?xml version="1.0" standalone="no"?>
<!DOCTYPE svg PUBLIC "-//W3C//DTD SVG 1.1//EN" "http://www.w3.org/Graphics/SVG/1.1/DTD/svg11.dtd" >
<svg xmlns="http://www.w3.org/2000/svg">
<metadata></metadata>
<defs>
<font id="supermolotlight_italic" horiz-adv-x="1228" >
<font-face units-per-em="2048" ascent="1653" descent="-395" />
<missing-glyph horiz-adv-x="593" />
<glyph horiz-adv-x="0" />
<glyph horiz-adv-x="682" />
<glyph unicode=" "  horiz-adv-x="593" />
<glyph unicode="&#x09;" horiz-adv-x="593" />
<glyph unicode="&#xa0;" horiz-adv-x="593" />
<glyph unicode="!" horiz-adv-x="532" d="M133 0l33 215h143l-33 -215h-143zM217 410l74 655l57 369h164l-57 -369l-136 -655h-102z" />
<glyph unicode="&#x22;" horiz-adv-x="727" d="M258 983l8 246l31 205h133l-31 -205l-69 -246h-72zM586 983l8 246l31 205h133l-31 -205l-70 -246h-71z" />
<glyph unicode="#" horiz-adv-x="1423" d="M57 369l19 112h246l155 471h-246l19 113h266l119 369h143l-119 -369h441l119 369h143l-119 -369h225l-18 -113h-246l-155 -471h245l-18 -112h-266l-119 -369h-143l118 369h-440l-119 -369h-143l119 369h-226zM465 481h440l156 471h-440z" />
<glyph unicode="$" horiz-adv-x="1208" d="M51 0l17 113h645q87 0 150 54t75 140l23 133q10 67 -24.5 111.5t-102.5 62.5l-414 103q-248 61 -209 297l18 112q24 142 125 225t260 83h82l31 184h143l-30 -184h358l-10 -72l-47 -41h-543q-87 0 -150 -54.5t-75 -140.5l-19 -112q-10 -67 23.5 -111.5t101.5 -62.5 l416 -103q245 -60 209 -297l-23 -133q-24 -142 -125 -224.5t-260 -82.5h-82l-30 -184h-144l31 184h-420z" />
<glyph unicode="%" horiz-adv-x="1689" d="M172 963l45 286q18 95 86 150t182 55h154q115 0 168 -55.5t35 -149.5l-45 -286q-18 -95 -86.5 -150t-182.5 -55h-153q-115 0 -168 55.5t-35 149.5zM287 0l8 61l1087 1373h123l-8 -62l-1087 -1372h-123zM305 963q-8 -47 15.5 -75t70.5 -28h154q47 0 79 28t40 75l45 286 q8 47 -15.5 75t-70.5 28h-154q-47 0 -79 -28t-40 -75zM950 184l45 287q14 94 84 149.5t185 55.5h153q114 0 165.5 -55t37.5 -150l-45 -287q-18 -95 -86 -149.5t-182 -54.5h-154q-115 0 -168 55t-35 149zM1083 184q-7 -47 16 -74.5t70 -27.5h154q47 0 79.5 27.5t39.5 74.5 l45 287q7 47 -16 74.5t-70 27.5h-154q-47 0 -79.5 -27.5t-39.5 -74.5z" />
<glyph unicode="&#x26;" horiz-adv-x="1351" d="M86 287l29 184q29 166 192 244q69 34 160 43l2 10q-38 41 -59 82q-58 95 -39 205l12 71q24 142 125 225t260 83h481l-10 -72l-47 -41h-440q-87 0 -150.5 -54.5t-75.5 -140.5l-12 -71q-12 -78 68 -191q27 -41 82 -96l614 -707l-8 -61h-133l-140 164q-25 -48 -75 -92 q-108 -92 -260 -92h-287q-160 0 -236 83t-53 224zM229 287q-14 -86 32 -140.5t132 -54.5h287q108 0 184 76q35 35 56 78l-373 430q-127 0 -201 -55t-88 -150z" />
<glyph unicode="'" horiz-adv-x="399" d="M258 983l8 246l31 205h133l-31 -205l-69 -246h-72z" />
<glyph unicode="(" horiz-adv-x="696" d="M123 -61l211 1331q24 142 125 224.5t260 82.5h82l-17 -113h-82q-87 0 -150 -54t-75 -140l-211 -1331q-14 -86 32 -140.5t132 -54.5h82l-18 -113h-82q-160 0 -236.5 83.5t-52.5 224.5z" />
<glyph unicode=")" horiz-adv-x="696" d="M-39 -369l19 113h81q86 0 149.5 54.5t76.5 140.5l211 1331q12 87 -33 140.5t-131 53.5h-82l16 113h82q160 0 237 -83t54 -224l-211 -1331q-24 -142 -126 -225t-261 -83h-82z" />
<glyph unicode="*" horiz-adv-x="839" d="M199 1126l32 82l246 -61l66 287h82l-25 -287l266 61l8 -82l-260 -92l117 -225l-80 -51l-141 205l-207 -205l-63 51l186 225z" />
<glyph unicode="+" horiz-adv-x="1085" d="M115 604l18 113h399l66 409h123l-66 -409h400l-19 -113h-399l-64 -409h-122l63 409h-399z" />
<glyph unicode="," horiz-adv-x="409" d="M37 -215l67 430h144l-23 -143l-116 -287h-72z" />
<glyph unicode="-" horiz-adv-x="993" d="M115 604l18 113h830l-19 -113h-829z" />
<glyph unicode="." horiz-adv-x="409" d="M72 0l32 215h144l-33 -215h-143z" />
<glyph unicode="/" horiz-adv-x="942" d="M-37 -102l8 61l987 1577h123l-8 -61l-987 -1577h-123z" />
<glyph unicode="0" horiz-adv-x="1310" d="M147 287l136 860q24 141 126 224t261 83h307q160 0 236 -83t53 -224l-136 -860q-24 -141 -126 -224t-261 -83h-307q-160 0 -236 83t-53 224zM291 287q-14 -86 32 -140.5t132 -54.5h307q86 0 148.5 54.5t76.5 140.5l135 860q13 86 -32.5 140t-131.5 54h-307 q-86 0 -149 -54t-76 -140z" />
<glyph unicode="1" horiz-adv-x="675" d="M186 1311l11 61l325 62h113l-225 -1434h-144l207 1311h-287z" />
<glyph unicode="2" horiz-adv-x="1105" d="M-10 0l16 113l785 686q43 40 73 75q76 92 86 160l17 92q12 87 -33 141t-131 54h-522l-35 41l10 72h563q160 0 237 -83.5t54 -224.5l-16 -92q-17 -101 -117 -221q-55 -62 -96 -96l-688 -594l-3 -10h758l-16 -113h-942z" />
<glyph unicode="3" horiz-adv-x="1116" d="M0 0l16 113h605q87 0 150 54t75 140l31 195q13 86 -32.5 140t-131.5 54h-400l15 92l606 523l2 10h-696l-35 41l10 72h911l-16 -103l-592 -512l-2 -10h215q160 0 236 -83t53 -224l-31 -195q-24 -142 -125 -224.5t-260 -82.5h-604z" />
<glyph unicode="4" horiz-adv-x="1198" d="M23 338l16 102l872 994h195l-156 -983h226l-17 -113h-225l-53 -338h-144l54 338h-768zM203 451h604l131 819h-10q-237 -263 -723 -809z" />
<glyph unicode="5" horiz-adv-x="1177" d="M92 0l17 113h573q87 0 150 54t75 140l37 225q12 87 -33 141t-131 54h-573l110 707h850l-10 -72l-47 -41h-666l-77 -481h430q160 0 236.5 -83.5t53.5 -224.5l-36 -225q-24 -142 -125 -224.5t-260 -82.5h-574z" />
<glyph unicode="6" d="M147 287l134 839q24 142 125 225t260 83h542l-10 -72l-47 -41h-502q-87 0 -149.5 -54t-75.5 -141l-43 -266h471q160 0 236 -83t53 -224l-41 -266q-24 -141 -126 -224t-261 -83h-277q-160 0 -236 83t-53 224zM291 287q-14 -86 32 -140.5t132 -54.5h276q86 0 148.5 54.5 t76.5 140.5l41 266q14 86 -31.5 140.5t-131.5 54.5h-472z" />
<glyph unicode="7" horiz-adv-x="993" d="M168 1321l16 113h953l-17 -103l-772 -1331h-133l10 72l729 1239l2 10h-788z" />
<glyph unicode="8" horiz-adv-x="1280" d="M117 287l33 215q20 132 145 209q46 30 121 47l2 10q-48 15 -86 45q-82 70 -62 191l23 143q24 141 126 224t261 83h256q160 0 236 -83t53 -224l-23 -143q-20 -120 -123 -191q-47 -31 -98 -45l-2 -10q62 -16 104 -47q100 -76 80 -209l-33 -215q-24 -141 -126 -224t-261 -83 h-337q-160 0 -236 83t-53 224zM260 287q-14 -86 32 -140.5t132 -54.5h338q86 0 148.5 54.5t76.5 140.5l33 215q13 86 -32.5 140t-131.5 54h-338q-86 0 -148.5 -53.5t-76.5 -138.5zM414 1004q-14 -86 32 -140.5t132 -54.5h256q86 0 148.5 54.5t76.5 140.5l22 143 q14 86 -31.5 140t-131.5 54h-256q-86 0 -149.5 -54t-76.5 -140z" />
<glyph unicode="9" d="M102 0l17 113h563q87 0 149.5 53.5t75.5 140.5l43 266h-471q-160 0 -236.5 83.5t-52.5 224.5l41 266q24 141 126 224t261 83h277q160 0 236 -83t53 -224l-133 -840q-24 -142 -125 -224.5t-260 -82.5h-564zM334 881q-14 -86 32 -140.5t132 -54.5h471l71 461 q14 86 -31.5 140t-131.5 54h-277q-86 0 -149 -54t-76 -140z" />
<glyph unicode=":" horiz-adv-x="409" d="M72 0l32 215h144l-33 -215h-143zM209 870l33 215h143l-33 -215h-143z" />
<glyph unicode=";" horiz-adv-x="409" d="M37 -215l67 430h144l-23 -143l-116 -287h-72zM209 870l33 215h143l-33 -215h-143z" />
<glyph unicode="&#x3c;" horiz-adv-x="1024" d="M117 481l20 133l895 482l-24 -154l-738 -389l-2 -10l615 -389l-23 -154z" />
<glyph unicode="=" horiz-adv-x="1034" d="M82 399l18 113h871l-19 -113h-870zM150 819l18 113h870l-18 -113h-870z" />
<glyph unicode="&#x3e;" horiz-adv-x="1024" d="M41 0l22 154l738 389l2 10l-615 389l25 154l743 -482l-20 -133z" />
<glyph unicode="?" horiz-adv-x="1013" d="M174 1362l10 72h564q160 0 236.5 -83.5t53.5 -224.5l-22 -143q-16 -87 -63.5 -140t-129.5 -95l-221 -113q-103 -56 -115 -143l-14 -82h-143l14 82q13 86 60 139t131 96l221 113q99 54 116 143l23 143q12 87 -33 141t-131 54h-522zM266 0l33 215h143l-32 -215h-144z" />
<glyph unicode="@" horiz-adv-x="1761" d="M143 266l144 901q24 142 126 225t261 83h747q160 0 236.5 -83.5t52.5 -224.5l-123 -778h-92l2 143h-10q-23 -39 -68 -81q-94 -82 -205 -82h-215q-145 0 -214 75t-50 201l15 82q19 125 112 201t238 76h440l27 163q12 87 -33 141t-131 54h-748q-87 0 -150 -54.5t-75 -140.5 l-143 -901q-13 -86 32.5 -140t131.5 -54h1065l-19 -113h-1065q-160 0 -236 83t-53 224zM879 645q-11 -69 29.5 -116.5t109.5 -47.5h215q103 0 188 97q40 47 68 98l33 215h-441q-69 0 -123 -47.5t-65 -116.5z" />
<glyph unicode="A" horiz-adv-x="1280" d="M-10 0l10 72l707 1362h194l277 -1362l-11 -72h-133l-73 379h-646l-192 -379h-133zM365 492h583l-162 798h-10z" />
<glyph unicode="B" horiz-adv-x="1331" d="M133 0l225 1434h615q160 0 237 -84q59 -64 60 -162q0 -29 -6 -62l-23 -133q-20 -121 -113 -190q-40 -29 -88 -45l-2 -10q62 -16 105 -48q85 -65 86 -167q0 -20 -4 -41l-31 -185q-24 -142 -125 -224.5t-260 -82.5h-676zM293 113h532q87 0 150.5 54t75.5 140l30 185 q3 18 3 35q0 63 -36 105q-44 54 -130 54h-533zM401 799h471q87 0 150.5 54t75.5 140l22 133q3 18 3 35q0 63 -36 106q-45 54 -131 54h-471z" />
<glyph unicode="C" horiz-adv-x="1167" d="M150 307l131 819q24 142 125 225t260 83h594l-11 -72l-47 -41h-553q-87 0 -150 -54.5t-75 -140.5l-131 -819q-3 -18 -2 -35q0 -64 35 -106q45 -54 131 -53h594l-17 -113h-594q-160 0 -236 83q-59 64 -59 162q0 29 5 62z" />
<glyph unicode="D" horiz-adv-x="1361" d="M133 0l225 1434h666q160 0 237 -84q59 -64 60 -162q0 -29 -6 -62l-131 -819q-24 -142 -125 -224.5t-260 -82.5h-666zM293 113h522q87 0 150 54t75 140l131 819q3 18 3 35q0 63 -36 106q-44 54 -130 54h-523z" />
<glyph unicode="E" horiz-adv-x="1187" d="M133 0l225 1434h922l-10 -72l-47 -41h-738l-86 -533h605l-17 -112h-604l-90 -563h778l-16 -113h-922z" />
<glyph unicode="F" horiz-adv-x="1136" d="M133 0l225 1434h922l-10 -72l-47 -41h-738l-92 -584h604l-18 -112h-604l-99 -625h-143z" />
<glyph unicode="G" horiz-adv-x="1341" d="M150 307l131 819q24 142 125 225t260 83h604l-10 -72l-48 -41h-563q-87 0 -150 -54.5t-75 -140.5l-131 -819q-3 -18 -3 -35q0 -63 36 -106q45 -53 131 -53h522l90 563h-348l16 112h492l-123 -788h-666q-160 0 -236 83q-59 64 -59 162q0 29 5 62z" />
<glyph unicode="H" horiz-adv-x="1392" d="M133 0l225 1434h144l-103 -656h717l103 656h143l-225 -1434h-144l105 666h-717l-105 -666h-143z" />
<glyph unicode="I" horiz-adv-x="532" d="M133 0l225 1434h144l-226 -1434h-143z" />
<glyph unicode="J" horiz-adv-x="1054" d="M-45 -20l18 112h502q86 0 148.5 54.5t76.5 140.5l181 1147h143l-180 -1147q-24 -141 -126 -224t-261 -83h-502z" />
<glyph unicode="K" horiz-adv-x="1290" d="M133 0l225 1434h144l-103 -656h349l450 656h133l-10 -72l-459 -635l305 -655l-10 -72h-133l-295 666h-348l-105 -666h-143z" />
<glyph unicode="L" horiz-adv-x="1116" d="M133 0l225 1434h144l-209 -1321h758l-17 -113h-901z" />
<glyph unicode="M" horiz-adv-x="1976" d="M82 0l10 72l400 1362h204l277 -1106h10l625 1106h204l-30 -1362l-10 -72h-134l37 1280h-10l-614 -1106h-195l-266 1106h-10l-365 -1280h-133z" />
<glyph unicode="N" horiz-adv-x="1392" d="M133 0l225 1434h174l502 -1239h10l27 297l148 942h143l-225 -1434h-174l-502 1239h-10l-27 -297l-148 -942h-143z" />
<glyph unicode="O" horiz-adv-x="1372" d="M147 287l136 860q24 141 126 224t261 83h368q160 0 236 -83q58 -64 58 -162q0 -30 -5 -62l-135 -860q-24 -141 -126 -224t-261 -83h-369q-160 0 -236 83q-58 64 -58 162q0 29 5 62zM291 287q-3 -20 -3 -38q0 -61 35 -103q46 -54 132 -54h368q86 0 149.5 54.5t76.5 140.5 l135 860q3 19 3 37q1 61 -35 103q-46 54 -132 54h-369q-86 0 -149 -54t-76 -140z" />
<glyph unicode="P" horiz-adv-x="1290" d="M133 0l225 1434h635q160 0 237 -84q59 -64 60 -162q0 -29 -6 -62l-53 -327q-24 -142 -125 -224.5t-260 -82.5h-492l-78 -492h-143zM371 604h491q87 0 150 54.5t75 140.5l54 327q3 18 3 35q0 63 -36 106q-45 54 -131 54h-492z" />
<glyph unicode="Q" horiz-adv-x="1372" d="M147 287l136 860q24 141 126 224t261 83h368q160 0 236 -83q58 -64 58 -162q0 -29 -5 -62l-135 -860q-24 -141 -126 -224t-261 -83h-113l115 -185l-12 -71h-133l-105 256h-121q-160 0 -236 83q-58 64 -58 162q0 29 5 62zM291 287q-3 -20 -3 -38q0 -61 35 -103 q46 -54 132 -54h368q86 0 149.5 54.5t76.5 140.5l135 860q3 19 3 37q0 61 -35 103q-46 54 -132 54h-369q-86 0 -149 -54t-76 -140z" />
<glyph unicode="R" horiz-adv-x="1331" d="M133 0l225 1434h635q160 0 237 -84q59 -64 60 -162q0 -29 -6 -62l-39 -245q-28 -172 -184 -252q-71 -36 -150 -45q201 -394 267 -512l-11 -72h-133l-278 573h-389l-91 -573h-143zM385 686h492q86 0 148.5 54.5t76.5 140.5l39 245q3 18 3 35q0 63 -36 106q-45 54 -131 54 h-492z" />
<glyph unicode="S" horiz-adv-x="1208" d="M51 0l17 113h645q87 0 150 54t75 140l23 133q2 15 2 29q-1 49 -27 83q-34 44 -102 62l-414 103q-214 53 -214 236q0 29 5 61l18 112q24 142 125 225t260 83h584l-10 -72l-47 -41h-543q-87 0 -150 -54.5t-75 -140.5l-19 -112q-2 -15 -2 -30q0 -48 26 -82q34 -44 101 -62 l416 -103q214 -52 213 -239q0 -27 -4 -58l-23 -133q-24 -142 -125 -224.5t-260 -82.5h-645z" />
<glyph unicode="T" horiz-adv-x="1126" d="M188 1321l17 113h1044l-10 -72l-47 -41h-410l-209 -1321h-143l209 1321h-451z" />
<glyph unicode="U" horiz-adv-x="1413" d="M178 287l180 1147h144l-180 -1147q-3 -20 -3 -39q1 -60 35 -102q46 -54 131 -54h349q86 0 148.5 54.5t76.5 140.5l180 1147h143l-180 -1147q-24 -141 -126 -224t-261 -83h-348q-160 0 -236 83q-58 64 -58 162q0 29 5 62z" />
<glyph unicode="V" horiz-adv-x="1259" d="M215 1362l10 72h133l228 -1291h10l633 1291h133l-10 -72l-686 -1362h-195z" />
<glyph unicode="W" horiz-adv-x="1894" d="M236 1362l10 72h133l74 -1291h10q97 198 274.5 565t241.5 500h195q31 -174 89.5 -530t90.5 -535h10l479 1291h133l-10 -72l-522 -1362h-195l-190 1065h-10l-527 -1065h-194z" />
<glyph unicode="X" horiz-adv-x="1218" d="M0 0l10 72l553 645l-317 645l10 72h133l283 -615h10l475 615h133l-10 -72l-522 -645l348 -645l-10 -72h-133l-312 625h-10l-508 -625h-133z" />
<glyph unicode="Y" horiz-adv-x="1187" d="M195 1362l10 72h133l287 -809h12l541 809h133l-11 -72l-626 -911l-70 -451h-143l69 451z" />
<glyph unicode="Z" horiz-adv-x="1126" d="M0 0l14 102l992 1209l2 10h-758l-35 41l10 72h983l-16 -103l-989 -1208l-2 -10h819l-16 -113h-1004z" />
<glyph unicode="[" horiz-adv-x="696" d="M74 -369l307 1946h420l-17 -113h-276l-272 -1720h276l-18 -113h-420z" />
<glyph unicode="\" horiz-adv-x="942" d="M213 1475l8 61h123l487 -1577l-8 -61h-123z" />
<glyph unicode="]" horiz-adv-x="696" d="M-39 -369l19 113h276l272 1720h-276l16 113h420l-307 -1946h-420z" />
<glyph unicode="^" horiz-adv-x="911" d="M127 942l426 492h133l270 -492h-153l-197 369h-10l-315 -369h-154z" />
<glyph unicode="_" horiz-adv-x="993" d="M-41 -256l16 113h871l-17 -113h-870z" />
<glyph unicode="`" horiz-adv-x="522" d="M246 1434h174l133 -328h-123z" />
<glyph unicode="a" horiz-adv-x="1198" d="M121 256l88 553q21 126 113 201t237 75h584l-170 -1085h-92l2 143h-11q-25 -43 -67 -82q-93 -81 -205 -81h-215q-145 0 -214 75q-54 59 -54 149q0 25 4 52zM264 256q-2 -15 -2 -28q0 -50 32 -88q40 -48 109 -48h215q105 0 189 96q36 42 67 99l109 686h-440 q-69 0 -125 -47.5t-66 -116.5z" />
<glyph unicode="b" horiz-adv-x="1208" d="M113 0l225 1434h143l-55 -349h440q145 1 215 -75q54 -58 53 -146q0 -26 -4 -55l-83 -533q-21 -126 -113.5 -201t-237.5 -75h-583zM272 113h441q69 0 124.5 47t65.5 116l84 533q2 15 2 29q-1 50 -31 88q-40 48 -108 47h-440z" />
<glyph unicode="c" horiz-adv-x="1034" d="M125 276l84 533q21 126 113 201t237 75h512l-10 -71l-47 -41h-471q-69 0 -125 -47.5t-66 -116.5l-84 -533q-2 -15 -3 -29q0 -50 32 -87q40 -47 109 -47h512l-17 -113h-512q-145 0 -215 76q-54 58 -54 145q0 26 5 55z" />
<glyph unicode="d" horiz-adv-x="1208" d="M121 256l88 553q21 126 113 201t237 75h440l56 349h143l-225 -1434h-92l2 143h-11q-25 -43 -67 -82q-93 -81 -205 -81h-215q-145 0 -214 75q-54 59 -54 149q0 25 4 52zM264 256q-2 -15 -2 -28q0 -50 32 -88q40 -48 109 -48h215q105 0 189 96q36 42 67 99l109 686h-440 q-69 0 -125 -47.5t-66 -116.5z" />
<glyph unicode="e" horiz-adv-x="1136" d="M125 276l88 553q19 125 112 201t238 76h256q145 0 214 -76q54 -59 54 -149q0 -25 -4 -52l-14 -92q-21 -125 -114 -200.5t-238 -75.5h-420l-29 -185q-2 -15 -3 -29q0 -50 32 -87q40 -47 109 -47h522l-17 -113h-522q-145 0 -215 76q-54 58 -54 145q0 26 5 55zM315 573h420 q69 0 124 47.5t67 116.5l14 92q2 15 2 28q0 51 -32 89q-40 48 -109 47h-256q-69 0 -124 -47.5t-65 -116.5z" />
<glyph unicode="f" horiz-adv-x="819" d="M-184 -348l20 112h64q69 0 124.5 47.5t65.5 116.5l199 1250q21 126 113 201t237 75h389l-12 -72l-47 -41h-348q-69 0 -124 -47t-65 -116l-41 -256h420l-18 -113h-420l-140 -881q-21 -126 -112.5 -201t-235.5 -75h-69z" />
<glyph unicode="g" horiz-adv-x="1198" d="M98 -348l17 112h512q69 0 124.5 47.5t65.5 116.5l19 113h-441q-145 0 -215 75q-54 59 -54 146q0 26 5 55l78 492q21 126 113 201t237 75h584l-182 -1157q-21 -126 -113.5 -201t-237.5 -75h-512zM274 317q-2 -15 -2 -29q0 -50 31 -87q40 -47 109 -47h440l131 819h-440 q-69 0 -125 -47.5t-66 -116.5z" />
<glyph unicode="h" d="M113 0l225 1434h143l-55 -349h440q145 1 215 -75q54 -58 53 -146q0 -26 -4 -55l-126 -809h-144l127 809q2 15 2 29q-1 50 -31 88q-40 48 -108 47h-440l-154 -973h-143z" />
<glyph unicode="i" horiz-adv-x="471" d="M102 0l170 1085h144l-170 -1085h-144zM299 1249l33 205h143l-33 -205h-143z" />
<glyph unicode="j" horiz-adv-x="512" d="M-268 -348l16 112h193q69 0 124.5 47.5t65.5 116.5l182 1157h144l-183 -1157q-21 -126 -112.5 -201t-235.5 -75h-194zM340 1249l33 205h143l-33 -205h-143z" />
<glyph unicode="k" horiz-adv-x="1136" d="M113 0l225 1434h143l-129 -820h307l351 471h133l-10 -71l-369 -451l250 -491l-10 -72h-134l-229 502h-307l-78 -502h-143z" />
<glyph unicode="l" horiz-adv-x="593" d="M152 256l186 1178h143l-186 -1178q-2 -15 -2 -28q-1 -50 31 -88q40 -48 110 -48h51l-18 -112h-51q-145 0 -214 75q-54 59 -54 149q0 25 4 52z" />
<glyph unicode="m" horiz-adv-x="1822" d="M102 0l170 1085h93l-3 -143h11q25 43 67 82q94 82 205 82h143q109 0 173 -72q26 -33 40 -71h11q19 33 61 71q84 72 187 72h204q144 0 214 -76q55 -59 55 -149q0 -25 -4 -52l-132 -829h-143l131 829q2 15 2 28q1 51 -31 89q-40 48 -110 47h-205q-69 0 -123 -47.5 t-65 -116.5l-131 -829h-144l131 829q2 15 2 28q1 51 -31 89q-40 48 -110 47h-143q-105 0 -191 -98q-39 -45 -65 -96l-125 -799h-144z" />
<glyph unicode="n" d="M102 0l170 1085h93l-3 -143h11q25 43 67 82q94 82 205 82h225q144 0 214 -76q55 -59 55 -149q0 -25 -4 -52l-131 -829h-144l131 829q2 15 2 28q1 51 -31 89q-40 48 -110 47h-225q-105 0 -191 -98q-39 -45 -65 -96l-125 -799h-144z" />
<glyph unicode="o" horiz-adv-x="1208" d="M121 256l92 573q19 125 112 201t238 76h307q144 0 214 -76q55 -59 55 -149q0 -25 -4 -52l-93 -573q-19 -125 -112 -200.5t-238 -75.5h-307q-145 0 -214 75q-54 59 -54 149q0 25 4 52zM264 256q-2 -15 -2 -28q0 -50 32 -88q40 -48 109 -48h308q69 0 123 47.5t65 116.5 l92 573q2 15 2 28q1 51 -31 89q-40 48 -110 47h-307q-69 0 -124 -47.5t-65 -116.5z" />
<glyph unicode="p" horiz-adv-x="1198" d="M47 -348l225 1433h93l-3 -143h11q25 43 67 82q94 82 205 82h215q145 0 214 -76q54 -59 54 -149q0 -25 -4 -52l-88 -553q-21 -126 -113 -201t-237 -75h-440l-56 -348h-143zM262 113h440q69 0 125 47t66 116l88 553q2 15 2 28q0 51 -31 89q-41 47 -110 47h-215 q-105 0 -191 -98q-39 -45 -65 -96z" />
<glyph unicode="q" horiz-adv-x="1198" d="M125 276l84 533q21 126 113 201t237 75h584l-225 -1433h-144l55 348h-440q-145 0 -215 76q-54 58 -54 145q0 26 5 55zM268 276q-2 -15 -2 -29q0 -50 31 -87q40 -47 109 -47h440l137 860h-440q-69 0 -125 -47.5t-66 -116.5z" />
<glyph unicode="r" horiz-adv-x="880" d="M102 0l170 1085h93l-3 -143h11q25 43 67 82q94 82 205 82h318l-19 -113h-317q-105 0 -191 -98q-39 -45 -65 -96l-125 -799h-144z" />
<glyph unicode="s" horiz-adv-x="1054" d="M31 0l16 113h563q69 0 125 47t66 116l8 52q3 18 3 33q0 86 -95 100l-389 61q-180 32 -180 192q0 25 4 54l6 41q21 126 113 201t237 75h512l-10 -71l-47 -41h-471q-69 0 -125 -47.5t-66 -116.5l-6 -41q-3 -18 -3 -33q0 -86 95 -100l389 -62q180 -32 180 -191q0 -25 -4 -54 l-8 -52q-21 -126 -113 -201t-237 -75h-563z" />
<glyph unicode="t" horiz-adv-x="870" d="M123 973l16 112h185l118 287h72l-47 -287h328l-17 -112h-327l-115 -717q-2 -15 -2 -28q0 -50 32 -88q40 -48 109 -48h318l-19 -112h-317q-145 0 -214 75q-54 59 -54 149q0 25 4 52l114 717h-184z" />
<glyph unicode="u" d="M141 256l131 829h144l-131 -829q-2 -15 -2 -28q-1 -50 31 -88q40 -48 110 -48h225q105 0 189 96q36 42 67 99l125 798h144l-170 -1085h-93l2 143h-10q-25 -43 -67 -82q-93 -81 -205 -81h-225q-144 0 -214 76q-55 59 -55 149q0 24 4 51z" />
<glyph unicode="v" horiz-adv-x="1116" d="M160 1014l10 71h133l207 -962h10l510 962h133l-10 -71l-559 -1014h-195z" />
<glyph unicode="w" horiz-adv-x="1628" d="M180 1014l10 71h134l67 -942h10l400 779h194l154 -779h10l363 942h133l-10 -71l-416 -1014h-185l-163 788h-11l-409 -788h-185z" />
<glyph unicode="x" horiz-adv-x="1054" d="M0 0l10 72l453 471l-283 471l10 71h134l237 -440h10l377 440h133l-10 -71l-434 -471l305 -471l-10 -72h-133l-258 440h-11l-397 -440h-133z" />
<glyph unicode="y" horiz-adv-x="1095" d="M80 -348l16 112h103q59 0 112 38.5t84 95.5l43 82l2 18l-280 1016l10 71h133l234 -942h10l463 942h133l-10 -71l-584 -1116q-136 -246 -367 -246h-102z" />
<glyph unicode="z" horiz-adv-x="1003" d="M0 0l14 102l813 861l2 10h-634l-35 41l10 71h860l-14 -102l-813 -860l-2 -10h696l-16 -113h-881z" />
<glyph unicode="{" horiz-adv-x="808" d="M145 543l23 133q86 0 143 49t70 135l65 410q24 142 125 224.5t260 82.5h82l-16 -113h-82q-87 0 -150 -54t-75 -140l-66 -410q-22 -132 -125 -203q-49 -32 -98 -43l-2 -10q46 -11 86 -43q79 -68 59 -203l-65 -419q-14 -86 32 -140.5t132 -54.5h82l-19 -113h-82 q-159 0 -235.5 83.5t-52.5 224.5l65 419q14 86 -28 135.5t-128 49.5z" />
<glyph unicode="|" horiz-adv-x="532" d="M63 -430l318 2007h143l-317 -2007h-144z" />
<glyph unicode="}" horiz-adv-x="808" d="M-39 -369l19 113h81q86 0 149.5 54.5t76.5 140.5l65 419q20 131 125 203q49 32 98 43l3 10q-46 11 -86 43q-82 70 -60 203l66 410q12 87 -33 140.5t-131 53.5h-82l16 113h82q160 0 237 -83t54 -224l-66 -410q-13 -86 28.5 -135t127.5 -49l-22 -133q-86 0 -142.5 -49.5 t-70.5 -135.5l-66 -419q-24 -142 -126 -225t-261 -83h-82z" />
<glyph unicode="~" horiz-adv-x="1034" d="M119 492l37 235q11 64 61 109t117 45h72q55 0 100 -41q25 -21 39 -41l129 -154q13 -22 20 -27q24 -24 54 -24h30q23 0 45 19t27 42l33 205h123l-37 -235q-11 -64 -61 -109t-117 -45h-72q-58 0 -103 41q-22 19 -38 41l-129 154l-23 24q-27 27 -51 27h-31q-23 0 -45 -19.5 t-27 -42.5l-30 -204h-123z" />
<glyph unicode="&#xa2;" horiz-adv-x="1034" d="M125 276l84 533q21 126 113 201t237 75h82l27 164h143l-27 -164h287l-10 -71l-47 -41h-471q-69 0 -125 -47.5t-66 -116.5l-84 -533q-11 -69 29 -116t109 -47h512l-17 -113h-287l-26 -164h-144l27 164h-82q-145 0 -215 75.5t-49 200.5z" />
<glyph unicode="&#xa3;" horiz-adv-x="1105" d="M51 0l17 113h61q47 23 80 53q80 68 98 162l66 420h-164l18 112h164l51 318q19 125 112.5 200.5t238.5 75.5h360l-12 -72l-47 -41h-320q-69 0 -123.5 -47t-64.5 -116l-51 -318h378l-18 -112h-379l-65 -420q-18 -93 -93 -156q-42 -33 -73 -49l-2 -10h737l-16 -113h-953z " />
<glyph unicode="&#xa5;" horiz-adv-x="1187" d="M135 215l19 113h358l18 123l-14 41h-336l17 112h276l-278 758l10 72h133l287 -809h12l541 809h133l-11 -72l-522 -758h279l-17 -112h-338l-28 -41l-19 -123h359l-19 -113h-358l-33 -215h-143l33 215h-359z" />
<glyph unicode="&#xa8;" horiz-adv-x="716" d="M215 1229l31 205h143l-31 -205h-143zM625 1229l30 205h144l-31 -205h-143z" />
<glyph unicode="&#xa9;" horiz-adv-x="1925" d="M143 266l144 901q24 142 126 225t261 83h921q160 0 236.5 -83.5t52.5 -224.5l-143 -901q-24 -141 -126 -224t-261 -83h-922q-160 0 -236 83t-53 224zM287 266q-13 -86 32.5 -140t131.5 -54h921q86 0 149 54t76 140l144 901q12 87 -33 141t-131 54h-922q-87 0 -150 -54.5 t-75 -140.5zM627 532l57 369q18 111 102.5 178.5t212.5 67.5h410l-10 -72l-49 -41h-369q-61 0 -102 -35.5t-52 -97.5l-57 -369q-10 -61 19.5 -97t91.5 -36h409l-16 -112h-410q-129 0 -192 67.5t-45 177.5z" />
<glyph unicode="&#xab;" horiz-adv-x="1003" d="M156 532l280 420h133l-10 -71l-240 -349l130 -348l-13 -71h-133zM545 532l280 420h133l-10 -71l-239 -349l129 -348l-13 -71h-133z" />
<glyph unicode="&#xad;" horiz-adv-x="993" d="M115 604l18 113h830l-19 -113h-829z" />
<glyph unicode="&#xae;" horiz-adv-x="1925" d="M143 266l144 901q24 142 126 225t261 83h921q160 0 236.5 -83.5t52.5 -224.5l-143 -901q-24 -141 -126 -224t-261 -83h-922q-160 0 -236 83t-53 224zM287 266q-13 -86 32.5 -140t131.5 -54h921q86 0 149 54t76 140l144 901q12 87 -33 141t-131 54h-922q-87 0 -150 -54.5 t-75 -140.5zM588 287l135 860h451q128 0 191.5 -67.5t45.5 -178.5l-6 -39q-19 -126 -133 -190q-52 -29 -107 -37l181 -277l-11 -71h-133q-133 246 -174 327h-246l-51 -327h-143zM801 727h307q61 0 102 36t52 99l6 39q10 61 -20.5 97t-92.5 36h-307z" />
<glyph unicode="&#xb4;" horiz-adv-x="522" d="M195 1106l235 328h174l-287 -328h-122z" />
<glyph unicode="&#xb8;" horiz-adv-x="573" d="M-51 -451l14 93h215q31 0 54.5 20t27.5 51l6 41q6 31 -11 51.5t-48 20.5h-154l29 174h102l-14 -82h72q77 0 118 -47t29 -117l-6 -41q-11 -70 -66.5 -117t-132.5 -47h-235z" />
<glyph unicode="&#xbb;" horiz-adv-x="1003" d="M88 113l12 71l240 348l-129 349l10 71h133l150 -420l-283 -419h-133zM477 113l12 71l240 348l-129 349l10 71h133l150 -420l-283 -419h-133z" />
<glyph unicode="&#x2c6;" horiz-adv-x="839" d="M199 1126l323 308h123l229 -308h-133l-172 215l-237 -215h-133z" />
<glyph unicode="&#x2da;" horiz-adv-x="604" d="M207 1188l14 92q11 63 67 108.5t132 45.5h92q76 0 118.5 -45.5t31.5 -108.5l-15 -92q-11 -64 -66.5 -109t-131.5 -45h-93q-76 0 -118 45.5t-31 108.5zM319 1188q-5 -31 12.5 -51.5t49.5 -20.5h72q32 0 54.5 20.5t27.5 51.5l14 92q6 31 -11 51.5t-49 20.5h-71 q-32 0 -55 -20.5t-29 -51.5z" />
<glyph unicode="&#x2dc;" horiz-adv-x="747" d="M203 1157l24 154q7 54 47.5 88.5t94.5 34.5h41q34 0 65 -27q10 -6 29 -25l80 -82l16 -16q17 -14 41 -14q39 0 49 51l17 102h122l-24 -153q-11 -54 -50 -88.5t-93 -34.5h-41q-39 0 -66 24q-5 3 -29 27l-80 82l-16 14q-21 17 -39 17q-43 0 -49 -51l-16 -103h-123z" />
<glyph unicode="&#x401;" horiz-adv-x="1187" d="M133 0l225 1434h922l-10 -72l-47 -41h-738l-86 -533h605l-17 -112h-604l-90 -563h778l-16 -113h-922zM563 1618l31 205h143l-30 -205h-144zM993 1618l31 205h143l-30 -205h-144z" />
<glyph unicode="&#x402;" horiz-adv-x="1382" d="M147 1321l17 113h880l-10 -72l-47 -41h-409l-70 -430h502q160 0 236.5 -83t53.5 -224l-53 -328q-19 -125 -112 -200.5t-238 -75.5h-92l18 112h92q69 0 124 47.5t65 116.5l53 328q12 87 -33 140.5t-131 53.5h-501l-123 -778h-144l209 1321h-287z" />
<glyph unicode="&#x403;" horiz-adv-x="1105" d="M133 0l225 1434h891l-10 -72l-47 -41h-707l-209 -1321h-143zM739 1577l238 328h174l-289 -328h-123z" />
<glyph unicode="&#x404;" horiz-adv-x="1167" d="M150 307l131 819q24 142 125 225t260 83h594l-11 -72l-47 -41h-553q-87 0 -150 -54.5t-75 -140.5l-55 -348h553l-19 -112h-553l-57 -359q-12 -87 33 -140.5t131 -53.5h594l-17 -113h-594q-160 0 -236.5 83t-53.5 224z" />
<glyph unicode="&#x405;" horiz-adv-x="1208" d="M51 0l17 113h645q87 0 150 54t75 140l23 133q10 67 -24.5 111.5t-102.5 62.5l-414 103q-248 61 -209 297l18 112q24 142 125 225t260 83h584l-10 -72l-47 -41h-543q-87 0 -150 -54.5t-75 -140.5l-19 -112q-10 -67 23.5 -111.5t101.5 -62.5l416 -103q245 -60 209 -297 l-23 -133q-24 -142 -125 -224.5t-260 -82.5h-645z" />
<glyph unicode="&#x406;" horiz-adv-x="532" d="M133 0l225 1434h144l-226 -1434h-143z" />
<glyph unicode="&#x407;" horiz-adv-x="593" d="M164 0l225 1434h143l-225 -1434h-143zM207 1567l33 205h143l-33 -205h-143zM616 1567l33 205h144l-33 -205h-144z" />
<glyph unicode="&#x408;" horiz-adv-x="1054" d="M-45 -20l18 112h502q86 0 148.5 54.5t76.5 140.5l181 1147h143l-180 -1147q-24 -141 -126 -224t-261 -83h-502z" />
<glyph unicode="&#x409;" horiz-adv-x="2048" d="M-35 -20l19 112h41q70 0 125.5 52t78.5 143l283 1147h788l-86 -553h461q160 0 236.5 -83.5t52.5 -224.5l-43 -266q-24 -142 -125 -224.5t-260 -82.5h-604l209 1321h-512l-256 -1034q-36 -149 -128.5 -228t-238.5 -79h-41zM1092 113h460q87 0 150.5 54t75.5 140l43 266 q14 86 -32 140.5t-132 54.5h-461z" />
<glyph unicode="&#x40a;" horiz-adv-x="2048" d="M133 0l225 1434h144l-96 -615h655l96 615h143l-96 -615h461q160 0 236 -83t53 -224l-33 -205q-24 -142 -125 -224.5t-260 -82.5h-604l110 707h-655l-111 -707h-143zM1092 113h460q87 0 150.5 54t75.5 140l32 205q14 86 -31.5 140.5t-131.5 54.5h-461z" />
<glyph unicode="&#x40b;" horiz-adv-x="1413" d="M147 1321l17 113h880l-10 -72l-47 -41h-409l-70 -430h502q160 0 236.5 -83t53.5 -224l-92 -584h-143l92 584q12 87 -33 140.5t-131 53.5h-501l-123 -778h-144l209 1321h-287z" />
<glyph unicode="&#x40c;" horiz-adv-x="1290" d="M133 0l225 1434h144l-103 -656h349l450 656h133l-10 -72l-459 -635l305 -655l-10 -72h-133l-295 666h-348l-105 -666h-143zM754 1536l237 328h174l-288 -328h-123z" />
<glyph unicode="&#x40e;" d="M160 -20l18 112h117q71 0 126.5 42t113.5 132l26 41l-366 1055l10 72h133l319 -963h11l551 963h133l-11 -72l-645 -1096q-83 -139 -183.5 -212.5t-236.5 -73.5h-116zM543 1751l12 82h123l-12 -82q-6 -38 16.5 -65t60.5 -27h185q38 0 69 27t37 65l13 82h122l-12 -82 q-14 -87 -80.5 -141t-165.5 -54h-184q-99 0 -148.5 54t-35.5 141z" />
<glyph unicode="&#x40f;" horiz-adv-x="1392" d="M133 0l225 1434h144l-209 -1321h717l209 1321h143l-225 -1434h-420l-78 -287h-102l16 287h-420z" />
<glyph unicode="&#x410;" horiz-adv-x="1280" d="M-10 0l10 72l707 1362h194l277 -1362l-11 -72h-133l-73 379h-646l-192 -379h-133zM365 492h583l-162 798h-10z" />
<glyph unicode="&#x411;" horiz-adv-x="1320" d="M133 0l225 1434h922l-10 -72l-47 -41h-738l-69 -440h522q160 0 236.5 -83.5t52.5 -224.5l-43 -266q-24 -142 -125 -224.5t-260 -82.5h-666zM293 113h522q87 0 150 54t75 140l43 266q14 86 -31.5 140.5t-131.5 54.5h-523z" />
<glyph unicode="&#x412;" horiz-adv-x="1331" d="M133 0l225 1434h615q160 0 237 -83.5t54 -224.5l-23 -133q-20 -121 -113 -190q-40 -29 -88 -45l-2 -10q62 -16 105 -48q102 -78 82 -208l-31 -185q-24 -142 -125 -224.5t-260 -82.5h-676zM293 113h532q87 0 150.5 54t75.5 140l30 185q12 87 -32.5 140.5t-130.5 53.5h-533 zM401 799h471q87 0 150.5 54t75.5 140l22 133q12 87 -33 141t-131 54h-471z" />
<glyph unicode="&#x413;" horiz-adv-x="1105" d="M133 0l225 1434h891l-10 -72l-47 -41h-707l-209 -1321h-143z" />
<glyph unicode="&#x414;" horiz-adv-x="1433" d="M-106 -287l61 400h113q40 21 75 53q81 72 103 162l276 1106h819l-208 -1321h204l-63 -400h-113l6 287h-1075l-88 -287h-110zM221 113h768l193 1208h-543l-250 -993q-24 -95 -96 -156q-44 -34 -70 -49z" />
<glyph unicode="&#x415;" horiz-adv-x="1187" d="M133 0l225 1434h922l-10 -72l-47 -41h-738l-86 -533h605l-17 -112h-604l-90 -563h778l-16 -113h-922z" />
<glyph unicode="&#x416;" horiz-adv-x="1966" d="M10 0l10 72l494 655l-238 635l11 72h133l225 -656h328l102 656h144l-103 -656h328l430 656h133l-10 -72l-438 -635l284 -655l-10 -72h-133l-275 666h-327l-105 -666h-143l104 666h-327l-484 -666h-133z" />
<glyph unicode="&#x417;" horiz-adv-x="1157" d="M-10 0l16 113h635q87 0 150 54t75 140l29 174q12 87 -33 141t-131 54h-358l16 112h338q86 0 150 54.5t77 140.5l23 143q12 87 -33 141t-131 54h-543l-34 41l10 72h583q160 0 237 -83.5t54 -224.5l-22 -143q-20 -128 -135 -195q-57 -29 -109 -40v-11q55 -11 104 -43 q99 -76 80 -213l-28 -174q-24 -142 -125 -224.5t-260 -82.5h-635z" />
<glyph unicode="&#x418;" horiz-adv-x="1392" d="M133 0l225 1434h144l-148 -942l-67 -297h10l891 1239h174l-225 -1434h-144l148 942l67 297h-10l-891 -1239h-174z" />
<glyph unicode="&#x419;" horiz-adv-x="1392" d="M133 0l225 1434h144l-148 -942l-67 -297h10l891 1239h174l-225 -1434h-144l148 942l67 297h-10l-891 -1239h-174zM608 1772l13 81h122l-12 -81q-6 -38 16 -65.5t60 -27.5h184q38 0 70.5 27.5t38.5 65.5l12 81h123l-12 -81q-14 -87 -81.5 -141t-166.5 -54h-184 q-98 0 -147.5 54t-35.5 141z" />
<glyph unicode="&#x41a;" horiz-adv-x="1290" d="M133 0l225 1434h144l-103 -656h349l450 656h133l-10 -72l-459 -635l305 -655l-10 -72h-133l-295 666h-348l-105 -666h-143z" />
<glyph unicode="&#x41b;" horiz-adv-x="1402" d="M-35 -20l19 112h41q70 0 125.5 52t78.5 143l283 1147h860l-225 -1434h-143l208 1321h-583l-256 -1034q-36 -149 -128.5 -228t-238.5 -79h-41z" />
<glyph unicode="&#x41c;" horiz-adv-x="1976" d="M82 0l10 72l400 1362h204l277 -1106h10l625 1106h204l-30 -1362l-10 -72h-134l37 1280h-10l-614 -1106h-195l-266 1106h-10l-365 -1280h-133z" />
<glyph unicode="&#x41d;" horiz-adv-x="1392" d="M133 0l225 1434h144l-103 -656h717l103 656h143l-225 -1434h-144l105 666h-717l-105 -666h-143z" />
<glyph unicode="&#x41e;" horiz-adv-x="1372" d="M147 287l136 860q24 141 126 224t261 83h368q160 0 236 -83t53 -224l-135 -860q-24 -141 -126 -224t-261 -83h-369q-160 0 -236 83t-53 224zM291 287q-14 -86 32 -140.5t132 -54.5h368q86 0 149.5 54.5t76.5 140.5l135 860q13 86 -32.5 140t-131.5 54h-369 q-86 0 -149 -54t-76 -140z" />
<glyph unicode="&#x41f;" horiz-adv-x="1392" d="M133 0l225 1434h1004l-225 -1434h-144l209 1321h-717l-209 -1321h-143z" />
<glyph unicode="&#x420;" horiz-adv-x="1290" d="M133 0l225 1434h635q160 0 237 -83.5t54 -224.5l-53 -327q-24 -142 -125 -224.5t-260 -82.5h-492l-78 -492h-143zM371 604h491q87 0 150 54.5t75 140.5l54 327q12 87 -33 141t-131 54h-492z" />
<glyph unicode="&#x421;" horiz-adv-x="1167" d="M150 307l131 819q24 142 125 225t260 83h594l-11 -72l-47 -41h-553q-87 0 -150 -54.5t-75 -140.5l-131 -819q-12 -87 33 -140.5t131 -53.5h594l-17 -113h-594q-160 0 -236.5 83t-53.5 224z" />
<glyph unicode="&#x422;" horiz-adv-x="1126" d="M188 1321l17 113h1044l-10 -72l-47 -41h-410l-209 -1321h-143l209 1321h-451z" />
<glyph unicode="&#x423;" d="M160 -20l18 112h117q71 0 126.5 42t113.5 132l26 41l-366 1055l10 72h133l319 -963h11l551 963h133l-11 -72l-645 -1096q-83 -139 -183.5 -212.5t-236.5 -73.5h-116z" />
<glyph unicode="&#x424;" horiz-adv-x="1843" d="M135 410l101 634q24 142 126 225t261 83h378l29 184h144l-29 -184h379q159 0 235.5 -83.5t52.5 -224.5l-100 -634q-24 -142 -126 -225t-261 -83h-379l-28 -184h-144l29 184h-379q-160 0 -236.5 83.5t-52.5 224.5zM279 410q-14 -86 31.5 -140.5t131.5 -54.5h379l162 1024 h-379q-86 0 -148.5 -54.5t-76.5 -140.5zM965 215h378q86 0 149.5 54.5t76.5 140.5l100 634q14 86 -32 140.5t-132 54.5h-379z" />
<glyph unicode="&#x425;" horiz-adv-x="1218" d="M0 0l10 72l553 645l-317 645l10 72h133l283 -615h10l475 615h133l-10 -72l-522 -645l348 -645l-10 -72h-133l-312 625h-10l-508 -625h-133z" />
<glyph unicode="&#x426;" horiz-adv-x="1433" d="M133 0l225 1434h144l-209 -1321h696l209 1321h143l-208 -1321h204l-63 -400h-113l6 287h-1034z" />
<glyph unicode="&#x427;" horiz-adv-x="1320" d="M215 850l92 584h144l-93 -584q-12 -87 33 -141t131 -54h502l123 779h143l-225 -1434h-143l84 543h-502q-160 0 -236 83t-53 224z" />
<glyph unicode="&#x428;" horiz-adv-x="2068" d="M133 0l225 1434h144l-209 -1321h625l208 1321h144l-209 -1321h625l208 1321h144l-226 -1434h-1679z" />
<glyph unicode="&#x429;" horiz-adv-x="2129" d="M133 0l225 1434h144l-209 -1321h625l208 1321h144l-209 -1321h625l208 1321h144l-209 -1321h205l-64 -400h-112l6 287h-1731z" />
<glyph unicode="&#x42a;" horiz-adv-x="1443" d="M147 1321l17 113h491l-86 -553h502q160 0 236.5 -83.5t52.5 -224.5l-43 -266q-24 -142 -125 -224.5t-260 -82.5h-645l209 1321h-349zM446 113h502q87 0 150.5 54t75.5 140l43 266q14 86 -32 140.5t-132 54.5h-502z" />
<glyph unicode="&#x42b;" horiz-adv-x="1843" d="M133 0l225 1434h144l-86 -553h502q159 0 235.5 -83.5t52.5 -224.5l-43 -266q-24 -142 -125 -224.5t-260 -82.5h-645zM293 113h502q87 0 150 54t75 140l43 266q14 86 -32 140.5t-132 54.5h-502zM1444 0l225 1434h143l-225 -1434h-143z" />
<glyph unicode="&#x42c;" horiz-adv-x="1310" d="M133 0l225 1434h144l-86 -553h522q160 0 236.5 -83.5t52.5 -224.5l-43 -266q-24 -142 -125 -224.5t-260 -82.5h-666zM293 113h522q87 0 150 54t75 140l43 266q14 86 -31.5 140.5t-131.5 54.5h-523z" />
<glyph unicode="&#x42d;" horiz-adv-x="1167" d="M10 0l17 113h594q87 0 150 54t75 140l57 359h-553l19 112h553l55 348q12 87 -33 141t-131 54h-553l-35 41l11 72h593q160 0 237 -83.5t54 -224.5l-131 -819q-24 -142 -125 -224.5t-260 -82.5h-594z" />
<glyph unicode="&#x42e;" horiz-adv-x="1873" d="M133 0l225 1434h144l-103 -656h369l57 369q24 141 126 224t261 83h328q160 0 236 -83t53 -224l-135 -860q-24 -141 -126 -224t-261 -83h-328q-160 0 -236 83t-53 224l60 379h-369l-105 -666h-143zM834 287q-14 -86 31.5 -140.5t131.5 -54.5h328q86 0 148.5 54.5 t76.5 140.5l136 860q13 86 -32.5 140t-131.5 54h-328q-86 0 -149 -54t-76 -140z" />
<glyph unicode="&#x42f;" horiz-adv-x="1331" d="M51 0l10 72l441 512q-152 0 -228.5 82.5t-52.5 214.5l39 245q24 142 125 225t260 83h655l-225 -1434h-143l90 573h-369l-469 -573h-133zM365 881q-14 -86 31.5 -140.5t131.5 -54.5h512l101 635h-512q-87 0 -150.5 -54.5t-75.5 -140.5z" />
<glyph unicode="&#x430;" horiz-adv-x="1198" d="M121 256l88 553q21 126 113 201t237 75h584l-170 -1085h-92l2 143h-11q-25 -43 -67 -82q-93 -81 -205 -81h-215q-145 0 -214 75t-50 201zM264 256q-11 -69 29.5 -116.5t109.5 -47.5h215q105 0 189 96q36 42 67 99l109 686h-440q-69 0 -125 -47.5t-66 -116.5z" />
<glyph unicode="&#x431;" horiz-adv-x="1208" d="M131 256l131 819q23 150 120.5 242.5t242.5 116.5l557 82l2 -113l-555 -82q-85 -13 -145 -74t-78 -172l-15 -92h461q145 0 214 -75.5t48 -200.5l-72 -451q-19 -125 -112 -200.5t-238 -75.5h-297q-145 0 -214 75t-50 201zM274 256q-10 -69 30.5 -116.5t109.5 -47.5h297 q69 0 123 47.5t65 116.5l72 451q11 69 -28.5 116t-108.5 47h-461z" />
<glyph unicode="&#x432;" horiz-adv-x="1167" d="M102 0l170 1085h533q145 0 215 -75.5t49 -200.5l-6 -39q-18 -105 -102 -166q-35 -25 -84 -41l-3 -10q55 -15 97 -43q91 -64 73 -182l-8 -52q-21 -126 -113 -201t-237 -75h-584zM262 113h440q69 0 125 47t66 116l8 52q11 69 -28.5 116.5t-108.5 47.5h-440zM340 604h389 q69 0 125 47.5t66 116.5l6 41q11 69 -29 116.5t-109 47.5h-389z" />
<glyph unicode="&#x433;" horiz-adv-x="1064" d="M84 276l6 41q33 209 254 246l399 62q114 15 134 133l8 51q11 69 -28.5 116.5t-108.5 47.5h-461l-35 41l10 71h502q145 0 215 -75.5t49 -200.5l-8 -51q-33 -209 -254 -246l-399 -61q-114 -16 -134 -134l-6 -41q-11 -69 29 -116t109 -47h522l-17 -113h-522 q-145 0 -215 75.5t-49 200.5z" />
<glyph unicode="&#x434;" horiz-adv-x="1208" d="M121 256l72 451q21 125 114 200.5t238 75.5h461l14 92q18 110 -24 171.5t-122 74.5l-489 82l39 113l487 -82q139 -24 207 -116.5t45 -242.5l-131 -819q-19 -125 -112 -200.5t-238 -75.5h-297q-145 0 -214 75t-50 201zM264 256q-11 -69 29.5 -116.5t109.5 -47.5h297 q69 0 124 47.5t65 116.5l98 614h-461q-69 0 -124.5 -47t-65.5 -116z" />
<glyph unicode="&#x435;" horiz-adv-x="1136" d="M125 276l88 553q19 125 112 201t238 76h256q145 0 214 -75.5t50 -201.5l-14 -92q-21 -125 -114 -200.5t-238 -75.5h-420l-29 -185q-11 -69 29 -116t109 -47h522l-17 -113h-522q-145 0 -215 75.5t-49 200.5zM315 573h420q69 0 124 47.5t67 116.5l14 92q11 69 -29.5 116.5 t-109.5 47.5h-256q-69 0 -124 -47.5t-65 -116.5z" />
<glyph unicode="&#x436;" horiz-adv-x="1699" d="M10 0l10 72l383 481l-202 461l10 71h133l180 -481h287l76 481h143l-76 -481h287l332 481h133l-10 -71l-350 -461l231 -481l-10 -72h-133l-209 492h-287l-78 -492h-143l78 492h-287l-365 -492h-133z" />
<glyph unicode="&#x437;" horiz-adv-x="1034" d="M-10 0l16 113h563q69 0 125 47t66 116l8 52q11 69 -28.5 116.5t-108.5 47.5h-322l17 112h301q69 0 124.5 47.5t65.5 116.5l6 41q11 69 -28.5 116.5t-108.5 47.5h-471l-35 41l10 71h512q146 0 216 -75.5t49 -200.5l-6 -39q-17 -104 -119 -166q-43 -25 -99 -41l-2 -10 q55 -15 97 -43q91 -64 73 -182l-8 -52q-21 -126 -113 -201t-237 -75h-563z" />
<glyph unicode="&#x438;" d="M141 256l131 829h144l-131 -829q-11 -69 29.5 -116.5t109.5 -47.5h225q105 0 189 96q36 42 67 99l125 798h144l-170 -1085h-93l2 143h-10q-25 -43 -67 -82q-93 -81 -205 -81h-225q-145 0 -214.5 75.5t-50.5 200.5z" />
<glyph unicode="&#x439;" d="M141 256l131 829h144l-131 -829q-11 -69 29.5 -116.5t109.5 -47.5h225q105 0 189 96q36 42 67 99l125 798h144l-170 -1085h-93l2 143h-10q-25 -43 -67 -82q-93 -81 -205 -81h-225q-145 0 -214.5 75.5t-50.5 200.5zM481 1423l11 72h122l-10 -72q-6 -38 16 -65t60 -27h164 q38 0 70 27t38 65l11 72h122l-10 -72q-14 -87 -80.5 -140.5t-165.5 -53.5h-163q-99 0 -149 53.5t-36 140.5z" />
<glyph unicode="&#x43a;" horiz-adv-x="1126" d="M102 0l170 1085h144l-76 -481h307l352 481h134l-11 -71l-370 -461l252 -481l-11 -72h-133l-229 492h-307l-78 -492h-144z" />
<glyph unicode="&#x43b;" horiz-adv-x="1208" d="M-35 -20l19 112h41q63 0 110 44.5t70 129.5l201 819h747l-170 -1085h-143l153 973h-471l-174 -707q-31 -132 -122 -209t-220 -77h-41z" />
<glyph unicode="&#x43c;" horiz-adv-x="1628" d="M51 0l10 72l304 1013h204l219 -819h11l477 819h205l-17 -1013l-10 -72h-133l25 932h-11l-467 -809h-194l-209 809h-10l-271 -932h-133z" />
<glyph unicode="&#x43d;" d="M102 0l170 1085h144l-76 -481h614l76 481h144l-170 -1085h-144l78 492h-614l-78 -492h-144z" />
<glyph unicode="&#x43e;" horiz-adv-x="1208" d="M121 256l92 573q19 125 112 201t238 76h307q145 0 214.5 -75.5t50.5 -201.5l-93 -573q-19 -125 -112 -200.5t-238 -75.5h-307q-145 0 -214 75t-50 201zM264 256q-11 -69 29.5 -116.5t109.5 -47.5h308q69 0 123 47.5t65 116.5l92 573q11 69 -29.5 116.5t-109.5 47.5h-307 q-69 0 -124 -47.5t-65 -116.5z" />
<glyph unicode="&#x43f;" d="M102 0l170 1085h93l-3 -143h11q25 43 67 82q94 82 205 82h225q145 0 214.5 -75.5t50.5 -201.5l-131 -829h-144l131 829q11 69 -29.5 116.5t-109.5 47.5h-225q-105 0 -191 -98q-39 -45 -65 -96l-125 -799h-144z" />
<glyph unicode="&#x440;" horiz-adv-x="1198" d="M47 -348l225 1433h93l-3 -143h11q25 43 67 82q94 82 205 82h215q145 0 214 -75.5t50 -201.5l-88 -553q-21 -126 -113 -201t-237 -75h-440l-56 -348h-143zM262 113h440q69 0 125 47t66 116l88 553q11 69 -29.5 116.5t-109.5 47.5h-215q-105 0 -191 -98q-39 -45 -65 -96z " />
<glyph unicode="&#x441;" horiz-adv-x="1034" d="M125 276l84 533q21 126 113 201t237 75h512l-10 -71l-47 -41h-471q-69 0 -125 -47.5t-66 -116.5l-84 -533q-11 -69 29 -116t109 -47h512l-17 -113h-512q-145 0 -215 75.5t-49 200.5z" />
<glyph unicode="&#x442;" horiz-adv-x="1822" d="M102 0l170 1085h93l-3 -143h11q25 43 67 82q94 82 205 82h143q109 0 173 -72q26 -33 40 -71h11q19 33 61 71q84 72 187 72h204q145 0 214.5 -75.5t50.5 -201.5l-132 -829h-143l131 829q11 69 -29.5 116.5t-109.5 47.5h-205q-69 0 -123 -47.5t-65 -116.5l-131 -829h-144 l131 829q11 69 -29.5 116.5t-109.5 47.5h-143q-105 0 -191 -98q-39 -45 -65 -96l-125 -799h-144z" />
<glyph unicode="&#x443;" horiz-adv-x="1095" d="M80 -348l16 112h103q59 0 112 38.5t84 95.5l43 82l2 18l-280 1016l10 71h133l234 -942h10l463 942h133l-10 -71l-584 -1116q-136 -246 -367 -246h-102z" />
<glyph unicode="&#x444;" horiz-adv-x="1617" d="M125 276l84 533q21 126 113 201t237 75h287l55 349h143l-55 -349h287q145 0 215 -75.5t49 -200.5l-84 -533q-21 -126 -113 -201t-237 -75h-287l-55 -348h-143l55 348h-287q-145 0 -215 75.5t-49 200.5zM268 276q-11 -69 29 -116t109 -47h286l137 860h-286 q-69 0 -125 -47.5t-66 -116.5zM836 113h286q69 0 125 47t66 116l84 533q11 69 -28.5 116.5t-108.5 47.5h-287z" />
<glyph unicode="&#x445;" horiz-adv-x="1054" d="M0 0l10 72l453 471l-283 471l10 71h134l237 -440h10l377 440h133l-10 -71l-434 -471l305 -471l-10 -72h-133l-258 440h-11l-397 -440h-133z" />
<glyph unicode="&#x446;" horiz-adv-x="1269" d="M141 256l131 829h144l-131 -829q-11 -69 29.5 -116.5t109.5 -47.5h205q104 0 188 96q39 45 68 99l125 798h143l-139 -890q-6 -31 15 -56.5t52 -25.5h103l-60 -379h-112l2 266q-54 7 -88.5 48t-32.5 95h-10q-24 -41 -68 -82q-93 -81 -205 -81h-204q-145 0 -214.5 75.5 t-50.5 200.5z" />
<glyph unicode="&#x447;" horiz-adv-x="1167" d="M166 666l65 419h144l-66 -419q-11 -69 28.5 -116.5t108.5 -47.5h431l92 583h143l-170 -1085h-143l61 389h-430q-145 0 -215 76t-49 201z" />
<glyph unicode="&#x448;" horiz-adv-x="1781" d="M141 256l131 829h144l-131 -829q-11 -69 29.5 -116.5t109.5 -47.5h184q69 0 124 47.5t65 116.5l131 829h143l-131 -829q-11 -69 29.5 -116.5t109.5 -47.5h123q105 0 189 96q36 42 67 99l125 798h143l-170 -1085h-92l2 143h-10q-25 -43 -67 -82q-93 -81 -205 -81h-123 q-116 0 -172 71q-24 27 -41 72h-10q-30 -45 -64 -72q-75 -71 -184 -71h-184q-145 0 -214.5 75.5t-50.5 200.5z" />
<glyph unicode="&#x449;" horiz-adv-x="1843" d="M141 256l131 829h144l-131 -829q-11 -69 29.5 -116.5t109.5 -47.5h184q69 0 124 47.5t65 116.5l131 829h143l-131 -829q-11 -69 29.5 -116.5t109.5 -47.5h123q105 0 189 96q36 42 67 99l125 798h143l-139 -890q-6 -31 15.5 -56.5t52.5 -25.5h102l-59 -379h-113l2 266 q-54 7 -88.5 48t-32.5 95h-10q-25 -43 -67 -82q-93 -81 -205 -81h-123q-116 0 -172 71q-24 27 -41 72h-10q-30 -45 -64 -72q-75 -71 -184 -71h-184q-145 0 -214.5 75.5t-50.5 200.5z" />
<glyph unicode="&#x44a;" horiz-adv-x="1280" d="M92 973l17 112h460l-61 -389h410q145 0 215 -75.5t49 -200.5l-23 -144q-21 -126 -113 -201t-237 -75h-553l154 973h-318zM416 113h409q69 0 125 47t66 116l22 144q11 69 -28.5 116.5t-108.5 47.5h-409z" />
<glyph unicode="&#x44b;" horiz-adv-x="1587" d="M102 0l170 1085h144l-62 -389h410q145 0 215 -75.5t49 -200.5l-22 -144q-21 -126 -113.5 -201t-237.5 -75h-553zM262 113h410q69 0 124.5 47t65.5 116l23 144q11 69 -28.5 116.5t-108.5 47.5h-410zM1219 0l170 1085h143l-170 -1085h-143z" />
<glyph unicode="&#x44c;" horiz-adv-x="1146" d="M102 0l170 1085h144l-62 -389h430q146 0 216 -75.5t49 -200.5l-23 -144q-21 -126 -113 -201t-237 -75h-574zM262 113h430q69 0 125 47t66 116l22 144q11 69 -28.5 116.5t-108.5 47.5h-430z" />
<glyph unicode="&#x44d;" horiz-adv-x="1034" d="M10 0l17 113h512q69 0 124.5 47t65.5 116l35 216h-451l17 112h450l33 205q11 69 -28.5 116.5t-108.5 47.5h-471l-35 41l10 71h512q145 0 215 -75.5t49 -200.5l-84 -533q-21 -126 -113 -201t-237 -75h-512z" />
<glyph unicode="&#x44e;" horiz-adv-x="1648" d="M102 0l170 1085h144l-76 -481h317l37 225q19 125 112 201t238 76h267q145 0 214 -75.5t50 -201.5l-92 -573q-19 -125 -112 -200.5t-238 -75.5h-267q-145 0 -214 75t-50 201l39 236h-317l-78 -492h-144zM745 256q-10 -69 30.5 -116.5t109.5 -47.5h266q69 0 123 47.5 t65 116.5l93 573q10 69 -30.5 116.5t-109.5 47.5h-266q-69 0 -123 -47.5t-65 -116.5z" />
<glyph unicode="&#x44f;" horiz-adv-x="1167" d="M31 0l10 72l352 348q-107 0 -170 76t-43 190l19 123q21 126 113 201t237 75h563l-170 -1085h-143l63 410h-327l-371 -410h-133zM324 686q-12 -69 28 -116.5t109 -47.5h420l71 451h-420q-69 0 -124.5 -47.5t-65.5 -116.5z" />
<glyph unicode="&#x451;" horiz-adv-x="1136" d="M125 276l88 553q19 125 112 201t238 76h256q145 0 214 -75.5t50 -201.5l-14 -92q-21 -125 -114 -200.5t-238 -75.5h-420l-29 -185q-11 -69 29 -116t109 -47h522l-17 -113h-522q-145 0 -215 75.5t-49 200.5zM315 573h420q69 0 124 47.5t67 116.5l14 92q11 69 -29.5 116.5 t-109.5 47.5h-256q-69 0 -124 -47.5t-65 -116.5zM446 1270l33 205h144l-33 -205h-144zM856 1270l33 205h143l-33 -205h-143z" />
<glyph unicode="&#x452;" horiz-adv-x="1198" d="M129 1085l18 113h185l110 246h72l-39 -246h369l-19 -113h-368l-31 -204h440q145 0 214 -76t48 -201l-55 -348q-19 -125 -112 -200.5t-238 -75.5h-51l18 112h51q69 0 124 47.5t65 116.5l55 348q11 69 -28.5 116.5t-108.5 47.5h-440l-121 -768h-144l170 1085h-184z" />
<glyph unicode="&#x453;" horiz-adv-x="1064" d="M84 276l6 41q33 209 254 246l399 62q114 15 134 133l8 51q11 69 -28.5 116.5t-108.5 47.5h-461l-35 41l10 71h502q145 0 215 -75.5t49 -200.5l-8 -51q-33 -209 -254 -246l-399 -61q-114 -16 -134 -134l-6 -41q-11 -69 29 -116t109 -47h522l-17 -113h-522 q-145 0 -215 75.5t-49 200.5zM588 1229l235 327h174l-286 -327h-123z" />
<glyph unicode="&#x454;" horiz-adv-x="1034" d="M125 276l84 533q21 126 113 201t237 75h512l-10 -71l-47 -41h-471q-69 0 -125 -47.5t-66 -116.5l-33 -205h451l-16 -112h-451l-35 -216q-11 -69 29 -116t109 -47h512l-17 -113h-512q-145 0 -215 75.5t-49 200.5z" />
<glyph unicode="&#x455;" horiz-adv-x="1054" d="M31 0l16 113h563q69 0 125 47t66 116l8 52q20 117 -92 133l-389 61q-209 37 -176 246l6 41q21 126 113 201t237 75h512l-10 -71l-47 -41h-471q-69 0 -125 -47.5t-66 -116.5l-6 -41q-20 -117 92 -133l389 -62q209 -37 176 -245l-8 -52q-21 -126 -113 -201t-237 -75h-563z " />
<glyph unicode="&#x456;" horiz-adv-x="471" d="M102 0l170 1085h144l-170 -1085h-144zM299 1249l33 205h143l-33 -205h-143z" />
<glyph unicode="&#x457;" horiz-adv-x="593" d="M156 1249l32 205h144l-33 -205h-143zM164 0l170 1085h143l-170 -1085h-143zM565 1249l33 205h143l-32 -205h-144z" />
<glyph unicode="&#x458;" horiz-adv-x="512" d="M-268 -348l16 112h193q69 0 124.5 47.5t65.5 116.5l182 1157h144l-183 -1157q-21 -126 -112.5 -201t-235.5 -75h-194zM340 1249l33 205h143l-33 -205h-143z" />
<glyph unicode="&#x459;" horiz-adv-x="1792" d="M-35 -20l19 112h41q63 0 110 44.5t70 129.5l201 819h696l-62 -389h390q145 0 215 -75.5t49 -200.5l-23 -144q-21 -126 -113 -201t-237 -75h-533l154 973h-420l-174 -707q-31 -132 -122 -209t-220 -77h-41zM948 113h389q69 0 125 47t66 116l22 144q11 69 -28.5 116.5 t-108.5 47.5h-389z" />
<glyph unicode="&#x45a;" horiz-adv-x="1822" d="M102 0l170 1085h144l-70 -440h574l69 440h144l-70 -440h389q145 0 215 -75.5t49 -200.5l-14 -93q-21 -126 -113 -201t-237 -75h-533l84 532h-573l-84 -532h-144zM979 113h389q69 0 125 47t66 116l14 93q11 69 -28.5 116t-108.5 47h-389z" />
<glyph unicode="&#x45b;" horiz-adv-x="1249" d="M129 1085l18 113h185l110 246h72l-39 -246h369l-19 -113h-368l-31 -204h440q145 0 214 -76t48 -201l-94 -604h-143l94 604q11 69 -28.5 116.5t-108.5 47.5h-440l-121 -768h-144l170 1085h-184z" />
<glyph unicode="&#x45c;" horiz-adv-x="1126" d="M102 0l170 1085h144l-76 -481h307l352 481h134l-11 -71l-370 -461l252 -481l-11 -72h-133l-229 492h-307l-78 -492h-144zM631 1208l235 328h174l-286 -328h-123z" />
<glyph unicode="&#x45e;" horiz-adv-x="1095" d="M80 -348l16 112h103q59 0 112 38.5t84 95.5l43 82l2 18l-280 1016l10 71h133l234 -942h10l463 942h133l-10 -71l-584 -1116q-136 -246 -367 -246h-102zM426 1403l12 72h123l-12 -72q-6 -38 17 -65t61 -27h164q38 0 69 27t37 65l12 72h123l-12 -72q-14 -87 -80.5 -141 t-165.5 -54h-164q-99 0 -148.5 54t-35.5 141z" />
<glyph unicode="&#x45f;" d="M102 0l170 1085h144l-154 -972h615l153 972h144l-170 -1085h-369l-74 -266h-102l12 266h-369z" />
<glyph unicode="&#x472;" horiz-adv-x="1372" d="M147 287l136 860q24 141 126 224t261 83h368q160 0 236 -83t53 -224l-135 -860q-24 -141 -126 -224t-261 -83h-369q-160 0 -236 83t-53 224zM291 287q-14 -86 32 -140.5t132 -54.5h368q86 0 149.5 54.5t76.5 140.5l59 379h-758zM369 778h757l58 369q13 86 -32.5 140 t-131.5 54h-369q-86 0 -149 -54t-76 -140z" />
<glyph unicode="&#x473;" horiz-adv-x="1208" d="M121 256l92 573q19 125 112 201t238 76h307q145 0 214.5 -75.5t50.5 -201.5l-93 -573q-19 -125 -112 -200.5t-238 -75.5h-307q-145 0 -214 75t-50 201zM264 256q-11 -69 29.5 -116.5t109.5 -47.5h308q69 0 123 47.5t65 116.5l37 225h-635zM317 594h635l39 235 q11 69 -29.5 116.5t-109.5 47.5h-307q-69 0 -124 -47.5t-65 -116.5z" />
<glyph unicode="&#x490;" horiz-adv-x="1085" d="M133 0l225 1434h748l76 215h102l-51 -328h-748l-209 -1321h-143z" />
<glyph unicode="&#x491;" horiz-adv-x="931" d="M102 0l170 1085h625l74 205h102l-49 -317h-625l-153 -973h-144z" />
<glyph unicode="&#x492;" horiz-adv-x="1105" d="M68 686l16 113h174l100 635h891l-10 -72l-47 -41h-707l-84 -522h400l-17 -113h-399l-109 -686h-143l109 686h-174z" />
<glyph unicode="&#x493;" horiz-adv-x="942" d="M35 481l16 113h144l77 491h758l-10 -71l-47 -41h-574l-61 -379h358l-16 -113h-358l-76 -481h-144l76 481h-143z" />
<glyph unicode="&#x496;" horiz-adv-x="2007" d="M10 0l10 72l494 655l-238 635l11 72h133l225 -656h328l102 656h144l-103 -656h328l430 656h133l-10 -72l-438 -635l266 -614h137l-64 -400h-112l6 287h-92l-275 666h-327l-105 -666h-143l104 666h-327l-484 -666h-133z" />
<glyph unicode="&#x497;" horiz-adv-x="1740" d="M10 0l10 72l383 481l-202 461l10 71h133l180 -481h287l76 481h143l-76 -481h287l332 481h133l-10 -71l-350 -461l210 -440h140l-60 -379h-112l2 266h-92l-209 492h-287l-78 -492h-143l78 492h-287l-365 -492h-133z" />
<glyph unicode="&#x498;" horiz-adv-x="1157" d="M-10 0l16 113h635q87 0 150 54t75 140l29 174q12 87 -33 141t-131 54h-358l16 112h338q86 0 150 54.5t77 140.5l23 143q12 87 -33 141t-131 54h-543l-34 41l10 72h583q160 0 237 -83.5t54 -224.5l-22 -143q-20 -128 -135 -195q-57 -29 -109 -40v-11q55 -11 104 -43 q99 -76 80 -213l-28 -174q-24 -142 -125 -224.5t-260 -82.5l-25 -143q-14 -95 -83 -150t-183 -55h-184l14 102h184q48 0 80.5 28t38.5 75l25 143h-502z" />
<glyph unicode="&#x499;" horiz-adv-x="1034" d="M-10 0l16 113h563q69 0 125 47t66 116l8 52q11 69 -28.5 116.5t-108.5 47.5h-322l17 112h301q69 0 124.5 47.5t65.5 116.5l6 41q11 69 -28.5 116.5t-108.5 47.5h-471l-35 41l10 71h512q146 0 216 -75.5t49 -200.5l-6 -39q-17 -104 -119 -166q-43 -25 -99 -41l-2 -10 q55 -15 97 -43q91 -64 73 -182l-8 -52q-21 -126 -113 -201t-237 -75h-10l-21 -123q-18 -95 -86 -150t-182 -55h-164l16 103h164q47 0 79.5 27.5t39.5 74.5l21 123h-420z" />
<glyph unicode="&#x49a;" horiz-adv-x="1331" d="M133 0l225 1434h144l-103 -656h349l450 656h133l-10 -72l-459 -635l285 -614h139l-63 -400h-113l6 287h-92l-295 666h-348l-105 -666h-143z" />
<glyph unicode="&#x49b;" horiz-adv-x="1167" d="M102 0l170 1085h144l-76 -481h307l352 481h134l-11 -71l-370 -461l229 -440h141l-59 -379h-113l2 266h-92l-229 492h-307l-78 -492h-144z" />
<glyph unicode="&#x49c;" horiz-adv-x="1290" d="M133 0l225 1434h144l-103 -656h113l29 185h133l-29 -185h103l450 656h133l-10 -72l-459 -635l305 -655l-10 -72h-133l-295 666h-102l-31 -195h-133l31 195h-113l-105 -666h-143z" />
<glyph unicode="&#x49d;" horiz-adv-x="1126" d="M102 0l170 1085h144l-76 -481h92l27 164h133l-27 -164h82l352 481h134l-11 -71l-370 -461l252 -481l-11 -72h-133l-229 492h-82l-29 -175h-133l29 175h-92l-78 -492h-144z" />
<glyph unicode="&#x4a0;" horiz-adv-x="1310" d="M154 0l208 1321h-194l16 113h338l-102 -656h348l451 656h133l-11 -72l-458 -635l305 -655l-10 -72h-134l-294 666h-349l-104 -666h-143z" />
<glyph unicode="&#x4a1;" horiz-adv-x="1146" d="M113 973l16 112h307l-76 -481h308l352 481h133l-10 -71l-371 -461l252 -481l-10 -72h-133l-230 492h-307l-78 -492h-143l153 973h-163z" />
<glyph unicode="&#x4a2;" horiz-adv-x="1392" d="M133 0l225 1434h144l-103 -656h717l103 656h143l-209 -1321h154l-64 -400h-113l7 287h-144l105 666h-717l-105 -666h-143z" />
<glyph unicode="&#x4a3;" d="M102 0l170 1085h144l-76 -481h614l76 481h144l-154 -972h154l-60 -379h-113l3 266h-144l78 492h-614l-78 -492h-144z" />
<glyph unicode="&#x4aa;" horiz-adv-x="1167" d="M150 307l131 819q24 142 125 225t260 83h594l-11 -72l-47 -41h-553q-87 0 -150 -54.5t-75 -140.5l-131 -819q-12 -87 33 -140.5t131 -53.5h594l-17 -113h-450l-25 -143q-6 -48 16.5 -75.5t69.5 -27.5h184l-14 -102h-184q-114 0 -166.5 55t-38.5 150l25 143h-11 q-160 0 -236.5 83t-53.5 224z" />
<glyph unicode="&#x4ab;" horiz-adv-x="1034" d="M125 276l84 533q21 126 113 201t237 75h512l-10 -71l-47 -41h-471q-69 0 -125 -47.5t-66 -116.5l-84 -533q-11 -69 29 -116t109 -47h512l-17 -113h-369l-20 -123q-7 -47 16 -74.5t70 -27.5h164l-17 -103h-163q-115 0 -168 55.5t-35 149.5l20 123h-10q-145 0 -215 75.5 t-49 200.5z" />
<glyph unicode="&#x4ae;" horiz-adv-x="1187" d="M195 1362l10 72h133l287 -809h12l541 809h133l-11 -72l-626 -911l-70 -451h-143l69 451z" />
<glyph unicode="&#x4af;" horiz-adv-x="1116" d="M160 1014l10 71h133l211 -942h10l506 942h133l-10 -71l-580 -1014l-55 -348h-153l55 348z" />
<glyph unicode="&#x4b0;" horiz-adv-x="1187" d="M195 1362l10 72h133l287 -809h12l541 809h133l-11 -72l-626 -911h266l-16 -113h-267l-53 -338h-143l53 338h-266l16 113h266z" />
<glyph unicode="&#x4b1;" horiz-adv-x="1116" d="M160 1014l10 71h133l211 -942h10l506 942h133l-10 -71l-580 -1014h226l-19 -113h-225l-37 -235h-153l36 235h-225l19 113h225z" />
<glyph unicode="&#x4b2;" horiz-adv-x="1259" d="M0 0l10 72l553 645l-317 645l10 72h133l283 -615h10l475 615h133l-10 -72l-522 -645l325 -604h131l-63 -400h-113l6 287h-81l-312 625h-10l-508 -625h-133z" />
<glyph unicode="&#x4b3;" horiz-adv-x="1085" d="M0 0l10 72l453 471l-283 471l10 71h134l237 -440h10l377 440h133l-10 -71l-434 -471l278 -430h125l-59 -379h-113l2 266h-71l-258 440h-11l-397 -440h-133z" />
<glyph unicode="&#x4b8;" horiz-adv-x="1320" d="M215 850l92 584h144l-93 -584q-12 -87 33 -141t131 -54h92l29 174h133l-28 -174h276l123 779h143l-225 -1434h-143l84 543h-277l-31 -205h-133l31 205h-92q-160 0 -236 83t-53 224z" />
<glyph unicode="&#x4b9;" horiz-adv-x="1167" d="M166 666l65 419h144l-66 -419q-11 -69 28.5 -116.5t108.5 -47.5h72l27 164h133l-27 -164h226l92 583h143l-170 -1085h-143l61 389h-225l-29 -174h-133l29 174h-72q-145 0 -215 76t-49 201z" />
<glyph unicode="&#x4ba;" horiz-adv-x="1320" d="M133 0l225 1434h144l-86 -543h502q160 0 236.5 -83t53.5 -224l-92 -584h-143l92 584q12 87 -33 140.5t-131 53.5h-502l-123 -778h-143z" />
<glyph unicode="&#x4bb;" d="M113 0l225 1434h143l-55 -349h440q145 0 215 -75.5t49 -200.5l-126 -809h-144l127 809q11 69 -28.5 116.5t-108.5 47.5h-440l-154 -973h-143z" />
<glyph unicode="&#x4d8;" horiz-adv-x="1372" d="M147 287l78 501h901l56 338q12 87 -33 141t-131 54h-625l17 113h624q160 0 237 -83.5t54 -224.5l-133 -839q-24 -141 -126 -224t-261 -83h-369q-160 0 -236 83t-53 224zM291 287q-14 -86 32 -140.5t132 -54.5h368q86 0 149.5 54.5t76.5 140.5l61 389h-758z" />
<glyph unicode="&#x4d9;" horiz-adv-x="1157" d="M121 256l53 338h727l35 215q11 69 -28.5 116.5t-108.5 47.5h-502l16 112h502q145 0 215 -75.5t49 -200.5l-88 -553q-19 -125 -112 -200.5t-238 -75.5h-256q-145 0 -214 75t-50 201zM264 256q-11 -69 29.5 -116.5t109.5 -47.5h256q69 0 124 47.5t65 116.5l37 225h-584z " />
<glyph unicode="&#x2000;" horiz-adv-x="952" />
<glyph unicode="&#x2001;" horiz-adv-x="1905" />
<glyph unicode="&#x2002;" horiz-adv-x="952" />
<glyph unicode="&#x2003;" horiz-adv-x="1905" />
<glyph unicode="&#x2004;" horiz-adv-x="635" />
<glyph unicode="&#x2005;" horiz-adv-x="476" />
<glyph unicode="&#x2006;" horiz-adv-x="317" />
<glyph unicode="&#x2007;" horiz-adv-x="317" />
<glyph unicode="&#x2008;" horiz-adv-x="238" />
<glyph unicode="&#x2009;" horiz-adv-x="381" />
<glyph unicode="&#x200a;" horiz-adv-x="105" />
<glyph unicode="&#x2010;" horiz-adv-x="993" d="M115 604l18 113h830l-19 -113h-829z" />
<glyph unicode="&#x2011;" horiz-adv-x="993" d="M115 604l18 113h830l-19 -113h-829z" />
<glyph unicode="&#x2012;" horiz-adv-x="993" d="M115 604l18 113h830l-19 -113h-829z" />
<glyph unicode="&#x2013;" horiz-adv-x="1167" d="M109 563l18 113h1003l-18 -113h-1003z" />
<glyph unicode="&#x2014;" horiz-adv-x="1710" d="M109 563l18 113h1546l-18 -113h-1546z" />
<glyph unicode="&#x2018;" horiz-adv-x="409" d="M229 1004l23 143l117 287h71l-67 -430h-144z" />
<glyph unicode="&#x2019;" horiz-adv-x="409" d="M229 1004l68 430h143l-22 -144l-117 -286h-72z" />
<glyph unicode="&#x201a;" horiz-adv-x="409" d="M37 -215l67 430h144l-23 -143l-116 -287h-72z" />
<glyph unicode="&#x201c;" horiz-adv-x="727" d="M229 1004l23 143l117 287h71l-67 -430h-144zM547 1004l22 143l117 287h72l-68 -430h-143z" />
<glyph unicode="&#x201d;" horiz-adv-x="727" d="M229 1004l68 430h143l-22 -144l-117 -286h-72zM547 1004l67 430h144l-23 -144l-117 -286h-71z" />
<glyph unicode="&#x201e;" horiz-adv-x="747" d="M37 -215l67 430h144l-23 -143l-116 -287h-72zM375 -215l67 430h144l-23 -143l-117 -287h-71z" />
<glyph unicode="&#x2026;" horiz-adv-x="1269" d="M72 0l32 215h144l-33 -215h-143zM502 0l33 215h143l-33 -215h-143zM932 0l33 215h143l-33 -215h-143z" />
<glyph unicode="&#x202f;" horiz-adv-x="381" />
<glyph unicode="&#x2039;" horiz-adv-x="645" d="M156 532l317 451h133l-12 -72l-275 -379l154 -378l-10 -72h-133z" />
<glyph unicode="&#x203a;" horiz-adv-x="645" d="M84 82l10 72l277 378l-156 379l12 72h133l175 -451l-318 -450h-133z" />
<glyph unicode="&#x205f;" horiz-adv-x="476" />
<glyph unicode="&#x20ac;" horiz-adv-x="1239" d="M78 502l18 112h174l33 205h-174l18 113h175l30 194q24 142 125 225t260 83h594l-10 -72l-47 -41h-553q-87 0 -150 -54.5t-75 -140.5l-31 -194h557l-18 -113h-558l-32 -205h557l-19 -112h-557l-30 -195q-12 -87 32.5 -140.5t130.5 -53.5h594l-16 -113h-594q-160 0 -237 83 t-54 224l31 195h-174z" />
<glyph unicode="&#x2122;" horiz-adv-x="1740" d="M158 1331l16 103h645l-10 -72l-37 -31h-225l-90 -573h-133l90 573h-256zM774 758l10 61l179 615h174l120 -471h11l268 471h174l-14 -615l-10 -61h-123l32 553h-10l-266 -471h-154l-114 471h-11l-143 -553h-123z" />
<glyph unicode="&#x25fc;" horiz-adv-x="1085" d="M0 0v1085h1085v-1085h-1085z" />
</font>
</defs>
</svg>
