<?xml version="1.0" standalone="no"?>
<!DOCTYPE svg PUBLIC "-//W3C//DTD SVG 1.1//EN" "http://www.w3.org/Graphics/SVG/1.1/DTD/svg11.dtd" >
<svg xmlns="http://www.w3.org/2000/svg">
<metadata></metadata>
<defs>
<font id="supermolotitalic" horiz-adv-x="1218" >
<font-face units-per-em="2048" ascent="1653" descent="-395" />
<missing-glyph horiz-adv-x="614" />
<glyph horiz-adv-x="0" />
<glyph horiz-adv-x="682" />
<glyph unicode=" "  horiz-adv-x="614" />
<glyph unicode="&#x09;" horiz-adv-x="614" />
<glyph unicode="&#xa0;" horiz-adv-x="614" />
<glyph unicode="!" horiz-adv-x="573" d="M123 0l39 246h215l-39 -246h-215zM223 440l49 645l56 349h245l-55 -349l-141 -645h-154z" />
<glyph unicode="&#x22;" horiz-adv-x="757" d="M236 1229l30 205h205l-31 -205l-80 -246h-122zM584 1229l30 205h205l-31 -205l-79 -246h-123z" />
<glyph unicode="#" horiz-adv-x="1443" d="M53 348l27 164h235l127 410h-215l25 163h246l106 349h215l-106 -349h358l107 349h215l-107 -349h205l-25 -163h-235l-127 -410h215l-27 -164h-245l-105 -348h-215l104 348h-358l-104 -348h-215l104 348h-205zM530 512h359l127 410h-359z" />
<glyph unicode="$" horiz-adv-x="1208" d="M41 0l25 164h634q61 0 108 40.5t58 102.5l23 144q10 53 -18 92t-83 51l-372 92q-124 30 -180.5 110t-36.5 208l20 122q24 143 126 225.5t269 82.5h41l31 184h225l-30 -184h327l-14 -93l-72 -71h-512q-61 0 -108 -41t-58 -103l-20 -122q-8 -54 19 -93t81 -51l375 -92 q122 -30 180 -110t35 -207l-22 -144q-24 -142 -126.5 -224.5t-269.5 -82.5h-41l-30 -184h-226l31 184h-389z" />
<glyph unicode="%" horiz-adv-x="1720" d="M174 973l41 266q18 102 89 158.5t192 56.5h153q121 0 175 -57t36 -158l-41 -266q-18 -102 -88.5 -158.5t-191.5 -56.5h-154q-121 0 -175 57t-36 158zM276 0l13 82l1073 1352h184l-12 -82l-1073 -1352h-185zM358 973q-12 -82 68 -82h113q38 0 64 22t32 60l41 266 q12 82 -68 82h-112q-38 0 -64.5 -22t-32.5 -60zM963 195l41 266q18 102 88.5 158.5t191.5 56.5h154q121 0 175 -57t36 -158l-41 -266q-18 -102 -89 -158.5t-192 -56.5h-153q-121 0 -175 57t-36 158zM1147 195q-12 -82 67 -82h113q38 0 64 22t32 60l41 266q12 82 -69 82h-113 q-82 0 -94 -82z" />
<glyph unicode="&#x26;" horiz-adv-x="1361" d="M66 287l26 174q22 154 197 235q74 36 166 52l2 10q-39 39 -64 82q-62 103 -45 204l14 82q24 144 129.5 226t286.5 82h492l-15 -93l-71 -71h-430q-61 0 -108 -41t-58 -103l-15 -82q-10 -63 66 -170q46 -62 78 -94l575 -698l-12 -82h-205l-131 154q-36 -50 -86 -88 q-110 -86 -237 -86h-259q-167 0 -243.5 82.5t-52.5 224.5zM291 287q-11 -62 23.5 -103t95.5 -41h237q90 0 156 62q32 32 47 61l-299 369q-98 0 -160 -47.5t-74 -126.5z" />
<glyph unicode="'" horiz-adv-x="409" d="M236 1229l30 205h205l-31 -205l-80 -246h-122z" />
<glyph unicode="(" horiz-adv-x="737" d="M113 -61l211 1331q24 144 129 225.5t286 81.5h103l-25 -164h-102q-61 0 -108 -40.5t-58 -102.5l-211 -1331q-10 -61 24.5 -102.5t96.5 -41.5h102l-26 -164h-103q-182 0 -262.5 82.5t-56.5 225.5z" />
<glyph unicode=")" horiz-adv-x="737" d="M-39 -369l27 164h102q61 0 108 41t58 103l211 1331q10 61 -24.5 102t-96.5 41h-102l24 164h103q179 0 260.5 -83t60.5 -224l-211 -1331q-24 -144 -130.5 -226t-287.5 -82h-102z" />
<glyph unicode="*" horiz-adv-x="860" d="M184 1106l49 113l228 -52l71 267h123l-10 -267l244 52l12 -113l-237 -82l108 -215l-113 -72l-143 195l-205 -195l-92 72l178 215z" />
<glyph unicode="+" horiz-adv-x="1075" d="M111 573l26 164h369l57 369h174l-57 -369h369l-27 -164h-369l-59 -368h-174l59 368h-368z" />
<glyph unicode="," horiz-adv-x="460" d="M29 -205l71 451h215l-28 -174l-146 -277h-112z" />
<glyph unicode="-" horiz-adv-x="1003" d="M111 573l26 164h840l-27 -164h-839z" />
<glyph unicode="." horiz-adv-x="460" d="M61 0l39 246h215l-39 -246h-215z" />
<glyph unicode="/" horiz-adv-x="1003" d="M-37 -102l12 82l973 1556h195l-13 -82l-972 -1556h-195z" />
<glyph unicode="0" horiz-adv-x="1331" d="M147 287l136 860q24 142 127 224.5t270 82.5h307q168 0 245.5 -82.5t53.5 -224.5l-135 -860q-24 -142 -127 -224.5t-270 -82.5h-308q-168 0 -245.5 82.5t-53.5 224.5zM373 287q-10 -61 24.5 -102.5t96.5 -41.5h266q61 0 108 41t58 103l135 860q10 61 -24.5 102t-96.5 41 h-266q-61 0 -108 -40.5t-58 -102.5z" />
<glyph unicode="1" horiz-adv-x="747" d="M176 1249l17 103l360 82h164l-225 -1434h-226l197 1249h-287z" />
<glyph unicode="2" horiz-adv-x="1136" d="M-10 0l22 154l742 675q32 25 67 66q68 75 78 129l16 102q10 61 -24 102.5t-96 41.5h-523l-51 71l15 93h604q168 0 246.5 -83t54.5 -225l-17 -102q-18 -105 -123 -217q-50 -56 -102 -100l-596 -533l-2 -10h686l-24 -164h-973z" />
<glyph unicode="3" horiz-adv-x="1146" d="M0 0l25 164h604q61 0 108 40.5t58 102.5l32 205q10 61 -24 102t-96 41h-400l23 144l544 461l3 10h-635l-52 71l15 93h952l-24 -154l-521 -451l-2 -10h144q168 0 245.5 -82.5t53.5 -224.5l-33 -205q-24 -143 -126 -225t-269 -82h-625z" />
<glyph unicode="4" horiz-adv-x="1249" d="M27 307l22 144l821 983h297l-151 -963h205l-27 -164h-205l-47 -307h-225l47 307h-737zM299 471h492l112 717h-10l-592 -707q0 -1 -1 -5t-1 -5z" />
<glyph unicode="5" horiz-adv-x="1208" d="M92 0l25 164h573q61 0 108 40.5t58 102.5l39 246q10 61 -24.5 102t-96.5 41h-573l116 738h891l-14 -93l-72 -71h-604l-65 -410h368q168 0 245.5 -82.5t53.5 -224.5l-39 -246q-24 -143 -126 -225t-269 -82h-594z" />
<glyph unicode="6" horiz-adv-x="1269" d="M147 287l134 839q24 143 126 225.5t269 82.5h573l-14 -93l-72 -71h-491q-61 0 -108 -41t-58 -103l-39 -245h420q167 0 245 -83t54 -225l-45 -286q-24 -142 -127.5 -224.5t-270.5 -82.5h-297q-168 0 -245.5 82.5t-53.5 224.5zM373 287q-10 -61 24.5 -102.5t96.5 -41.5h256 q61 0 107.5 41t57.5 103l46 286q10 61 -24.5 102.5t-96.5 41.5h-400z" />
<glyph unicode="7" horiz-adv-x="1044" d="M160 1270l24 164h983l-22 -144l-735 -1290h-226l15 102l696 1158l2 10h-737z" />
<glyph unicode="8" horiz-adv-x="1310" d="M117 287l37 235q20 131 143 195q57 30 119 41l2 10q-45 11 -86 37q-83 63 -66 168l27 174q24 142 127 224.5t270 82.5h266q168 0 245.5 -82.5t53.5 -224.5l-26 -174q-17 -106 -119 -168q-51 -26 -98 -37l-2 -10q53 -10 106 -41q102 -66 82 -195l-37 -235 q-24 -142 -127 -224.5t-270 -82.5h-348q-168 0 -245.5 82.5t-53.5 224.5zM342 287q-10 -61 24.5 -102.5t96.5 -41.5h307q61 0 108 41t58 103l37 235q10 61 -24.5 102.5t-96.5 41.5h-307q-61 0 -108 -41t-58 -103zM492 973q-10 -61 24 -102.5t96 -41.5h226q61 0 108 41 t58 103l26 174q10 61 -24.5 102t-96.5 41h-225q-61 0 -108 -40.5t-58 -102.5z" />
<glyph unicode="9" horiz-adv-x="1269" d="M102 0l25 164h573q61 0 108 40.5t58 102.5l39 246h-420q-168 0 -245.5 82.5t-53.5 224.5l45 287q24 142 127.5 224.5t270.5 82.5h297q168 0 245.5 -82.5t53.5 -224.5l-133 -840q-24 -142 -126.5 -224.5t-269.5 -82.5h-594zM412 860q-10 -61 24 -102t96 -41h400l67 430 q10 61 -24 102t-96 41h-256q-61 0 -108 -40.5t-58 -102.5z" />
<glyph unicode=":" horiz-adv-x="460" d="M61 0l39 246h215l-39 -246h-215zM193 840l38 245h215l-38 -245h-215z" />
<glyph unicode=";" horiz-adv-x="460" d="M29 -205l71 451h215l-28 -174l-146 -277h-112zM193 840l38 245h215l-38 -245h-215z" />
<glyph unicode="&#x3c;" horiz-adv-x="1064" d="M121 451l31 194l911 451l-33 -213l-678 -330l-2 -10l574 -328l-33 -215z" />
<glyph unicode="=" horiz-adv-x="1085" d="M98 369l27 163h881l-27 -163h-881zM164 778l24 164h881l-25 -164h-880z" />
<glyph unicode="&#x3e;" horiz-adv-x="1064" d="M51 0l33 215l676 328l2 10l-572 328l33 215l768 -451l-30 -194z" />
<glyph unicode="?" horiz-adv-x="1021" d="M150 1341l14 93h571q168 0 246.5 -83t54.5 -225l-22 -143q-30 -160 -183 -235l-221 -113q-101 -55 -112 -123l-11 -72h-194l10 72q16 89 62.5 149t97.5 87l223 112q89 44 102 123l23 143q10 61 -24.5 102.5t-96.5 41.5h-489zM213 0l39 246h215l-39 -246h-215z" />
<glyph unicode="@" horiz-adv-x="1832" d="M164 266l143 901q24 142 127.5 225t270.5 83h778q160 0 236.5 -83.5t52.5 -224.5l-123 -778h-133l-21 133h-10q-29 -46 -66 -78q-90 -75 -205 -75h-184q-143 0 -217.5 78t-56.5 188l16 113q18 110 118.5 188t242.5 78h399l24 153q10 61 -24 102.5t-96 41.5h-738 q-61 0 -108 -41t-58 -103l-143 -901q-10 -61 24.5 -102t96.5 -41h1055l-27 -164h-1075q-168 0 -245.5 82.5t-53.5 224.5zM971 635q-10 -54 19 -88.5t83 -34.5h164q100 0 182 86q40 40 62 88l28 184h-379q-54 0 -93 -34t-50 -88z" />
<glyph unicode="A" horiz-adv-x="1341" d="M0 0l14 102l672 1332h297l250 -1332l-14 -102h-215l-60 348h-563l-166 -348h-215zM459 512h461l-111 717h-10z" />
<glyph unicode="B" horiz-adv-x="1351" d="M123 0l225 1434h635q169 0 247 -83q60 -64 59 -162q0 -30 -5 -63l-27 -163q-18 -116 -110 -177q-37 -25 -88 -38v-11q52 -8 106 -39q85 -55 84 -150q0 -17 -2 -36l-33 -205q-24 -143 -126 -225t-269 -82h-696zM373 164h450q61 0 108 40.5t58 102.5l33 205q2 14 2 26 q0 44 -26 76q-34 41 -97 41h-450zM477 819h389q61 0 108 41t58 103l27 163q2 14 2 26q-1 44 -27 76q-34 42 -96 42h-389z" />
<glyph unicode="C" d="M150 307l131 819q24 143 126 225.5t269 82.5h624l-14 -93l-72 -71h-542q-61 0 -108 -41t-58 -103l-131 -819q-2 -14 -3 -26q0 -44 28 -76q34 -41 96 -41h604l-25 -164h-624q-169 0 -247 82q-60 63 -60 162q0 30 6 63z" />
<glyph unicode="D" horiz-adv-x="1392" d="M123 0l225 1434h696q168 0 247 -83q61 -64 60 -162q0 -30 -5 -63l-132 -819q-24 -143 -126 -225t-269 -82h-696zM373 164h450q61 0 108 40.5t58 102.5l131 819q2 14 2 26q0 44 -26 76q-34 42 -97 42h-450z" />
<glyph unicode="E" horiz-adv-x="1208" d="M123 0l225 1434h952l-14 -93l-72 -71h-665l-76 -471h543l-25 -164h-542l-76 -471h727l-25 -164h-952z" />
<glyph unicode="F" horiz-adv-x="1167" d="M123 0l225 1434h952l-14 -93l-72 -71h-665l-78 -492h543l-27 -164h-543l-96 -614h-225z" />
<glyph unicode="G" horiz-adv-x="1382" d="M150 307l131 819q24 143 126 225.5t269 82.5h624l-14 -93l-72 -71h-542q-61 0 -108 -41t-58 -103l-131 -819q-2 -14 -2 -26q0 -44 27 -76q34 -41 96 -41h450l76 471h-307l24 164h533l-125 -799h-696q-168 0 -247 82q-60 64 -60 162q0 30 6 63z" />
<glyph unicode="H" horiz-adv-x="1413" d="M123 0l225 1434h225l-100 -635h594l100 635h226l-226 -1434h-225l100 635h-593l-101 -635h-225z" />
<glyph unicode="I" horiz-adv-x="593" d="M123 0l225 1434h225l-225 -1434h-225z" />
<glyph unicode="J" horiz-adv-x="1075" d="M-45 -20l27 163h501q61 0 108 41t58 103l180 1147h226l-181 -1147q-24 -142 -127 -224.5t-270 -82.5h-522z" />
<glyph unicode="K" horiz-adv-x="1341" d="M123 0l225 1434h225l-98 -625h277l415 625h215l-16 -103l-442 -604l288 -625l-14 -102h-215l-258 645h-276l-101 -645h-225z" />
<glyph unicode="L" horiz-adv-x="1136" d="M123 0l225 1434h225l-200 -1270h706l-24 -164h-932z" />
<glyph unicode="M" horiz-adv-x="1996" d="M72 0l14 102l395 1332h307l203 -1055h10l535 1055h307l-26 -1332l-15 -102h-215l58 1208h-11l-522 -1034h-297l-194 1034h-11l-323 -1208h-215z" />
<glyph unicode="N" horiz-adv-x="1413" d="M123 0l225 1434h246l420 -1106h10l25 348l118 758h226l-226 -1434h-245l-420 1106h-10l-25 -348l-119 -758h-225z" />
<glyph unicode="O" horiz-adv-x="1392" d="M147 287l136 860q24 142 127 224.5t270 82.5h369q167 0 245 -82q59 -63 59 -161q0 -30 -5 -64l-136 -860q-24 -142 -127 -224.5t-270 -82.5h-369q-168 0 -246 82q-59 63 -59 161q0 30 6 64zM373 287q-2 -14 -3 -26q0 -45 28 -77q34 -42 96 -41h327q61 0 108 41t58 103 l135 860q2 14 2 26q0 44 -26 76q-34 41 -97 41h-327q-61 0 -108 -40.5t-58 -102.5z" />
<glyph unicode="P" horiz-adv-x="1331" d="M123 0l225 1434h676q168 0 246 -83q60 -64 60 -162q0 -30 -5 -63l-55 -348q-24 -142 -127.5 -224.5t-270.5 -82.5h-450l-74 -471h-225zM449 635h430q61 0 107.5 40.5t57.5 102.5l56 348q2 14 2 26q0 44 -26 76q-34 42 -97 42h-430z" />
<glyph unicode="Q" horiz-adv-x="1392" d="M147 287l136 860q24 142 127 224.5t270 82.5h369q168 0 245 -82q60 -63 60 -161q0 -30 -6 -64l-136 -860q-24 -142 -127 -224.5t-270 -82.5h-72l117 -164l-14 -92h-215l-92 256h-93q-168 0 -246 82q-59 63 -59 161q0 30 6 64zM373 287q-2 -14 -2 -26q0 -44 27 -77 q34 -41 96 -41h327q61 0 108 41t58 103l135 860q2 14 2 26q0 44 -26 76q-35 41 -97 41h-327q-61 0 -108 -40.5t-58 -102.5z" />
<glyph unicode="R" horiz-adv-x="1361" d="M123 0l225 1434h676q168 0 246 -83q60 -64 60 -162q0 -30 -5 -63l-43 -266q-30 -158 -180 -235q-65 -36 -152 -52l262 -471l-14 -102h-215l-262 553h-287l-86 -553h-225zM461 717h430q61 0 108 40.5t58 102.5l43 266q2 14 2 26q0 44 -26 76q-34 42 -97 42h-430z" />
<glyph unicode="S" horiz-adv-x="1208" d="M41 0l25 164h634q61 0 108 40.5t58 102.5l23 144q3 14 3 27q0 36 -21 65q-28 39 -83 51l-372 92q-122 30 -180 110q-43 60 -42 146q0 30 5 62l20 122q24 143 126 225.5t269 82.5h594l-14 -93l-72 -71h-512q-61 0 -108 -41t-58 -103l-20 -122q-2 -12 -2 -24q0 -39 21 -69 q27 -39 81 -51l375 -92q122 -30 180 -110q42 -57 42 -139q0 -32 -7 -68l-22 -144q-24 -142 -126.5 -224.5t-269.5 -82.5h-655z" />
<glyph unicode="T" horiz-adv-x="1146" d="M170 1270l25 164h1085l-14 -93l-72 -71h-369l-200 -1270h-226l201 1270h-430z" />
<glyph unicode="U" horiz-adv-x="1454" d="M168 287l180 1147h225l-180 -1147q-2 -14 -3 -26q0 -45 28 -77q34 -42 96 -41h348q61 0 108 41t58 103l180 1147h226l-181 -1147q-24 -142 -127 -224.5t-270 -82.5h-389q-167 0 -245 82q-59 63 -60 161q0 30 6 64z" />
<glyph unicode="V" horiz-adv-x="1300" d="M209 1331l16 103h215l174 -1229h11l563 1229h215l-17 -103l-649 -1331h-297z" />
<glyph unicode="W" horiz-adv-x="1955" d="M229 1331l17 103h215l45 -1209h10l442 983h297l131 -983h11l426 1209h215l-17 -103l-495 -1331h-307l-142 993h-10l-453 -993h-307z" />
<glyph unicode="X" horiz-adv-x="1239" d="M0 0l14 102l521 625l-295 604l16 103h215l217 -574h10l398 574h215l-17 -103l-483 -604l319 -625l-14 -102h-215l-248 573h-10l-428 -573h-215z" />
<glyph unicode="Y" horiz-adv-x="1228" d="M188 1331l17 103h215l227 -768h21l469 768h215l-17 -103l-600 -891l-69 -440h-226l70 440z" />
<glyph unicode="Z" horiz-adv-x="1198" d="M20 0l23 154l913 1106l2 10h-675l-52 71l15 93h1014l-25 -154l-911 -1106l-2 -10h757l-24 -164h-1035z" />
<glyph unicode="[" horiz-adv-x="737" d="M63 -369l308 1946h471l-25 -164h-246l-256 -1618h246l-26 -164h-472z" />
<glyph unicode="\" horiz-adv-x="1003" d="M209 1454l12 82h195l481 -1556l-12 -82h-195z" />
<glyph unicode="]" horiz-adv-x="737" d="M-39 -369l27 164h245l256 1618h-245l24 164h471l-307 -1946h-471z" />
<glyph unicode="^" horiz-adv-x="952" d="M127 942l416 492h194l260 -492h-215l-164 318h-10l-266 -318h-215z" />
<glyph unicode="_" horiz-adv-x="962" d="M-66 -287l25 164h881l-27 -164h-879z" />
<glyph unicode="`" horiz-adv-x="593" d="M246 1434h246l133 -328h-195z" />
<glyph unicode="a" horiz-adv-x="1177" d="M70 246l90 573q18 110 117.5 188t240.5 78h615l-170 -1085h-134l-20 133h-10q-29 -46 -66 -78q-90 -75 -205 -75h-184q-141 0 -218 78q-60 62 -60 143q0 22 4 45zM285 246q-3 -14 -2 -26q0 -36 21 -62q29 -34 83 -35h164q100 0 182 86q39 43 60 88l102 645h-379 q-54 0 -94 -34.5t-47 -88.5z" />
<glyph unicode="b" horiz-adv-x="1228" d="M102 0l226 1434h215l-56 -349h400q143 0 219 -78q61 -63 61 -147q0 -20 -4 -41l-88 -553q-18 -110 -117.5 -188t-240.5 -78h-615zM340 143h379q54 0 94 34.5t47 88.5l88 553q2 12 2 22q0 39 -23 67q-29 34 -83 34h-379z" />
<glyph unicode="c" horiz-adv-x="1064" d="M113 266l88 553q18 110 117.5 188t240.5 78h533l-11 -71l-73 -72h-451q-54 0 -94 -34.5t-47 -88.5l-88 -553q-2 -12 -1 -22q0 -38 22 -66q29 -34 83 -35h512l-22 -143h-533q-143 0 -219 78q-61 63 -60 147q0 20 3 41z" />
<glyph unicode="d" horiz-adv-x="1228" d="M111 246l90 573q18 110 117.5 188t240.5 78h399l56 349h215l-225 -1434h-134l-20 133h-10q-29 -46 -66 -78q-90 -75 -205 -75h-184q-141 0 -218 78q-61 62 -61 143q0 22 5 45zM326 246q-3 -14 -3 -26q0 -36 22 -62q29 -34 83 -35h164q100 0 182 86q39 43 60 88l102 645 h-379q-54 0 -94 -34.5t-47 -88.5z" />
<glyph unicode="e" horiz-adv-x="1146" d="M113 266l90 574q18 110 119 188t241 78h266q143 0 218 -78q60 -63 61 -147q0 -20 -4 -41l-21 -133q-18 -110 -117.5 -188.5t-240.5 -78.5h-369l-28 -174q-2 -12 -1 -22q0 -38 22 -66q29 -34 83 -35h522l-22 -143h-543q-143 0 -219 78q-61 63 -60 147q0 20 3 41zM379 584 h348q54 0 94 34.5t47 88.5l21 133q3 14 3 26q0 36 -22 62q-30 34 -84 35h-225q-54 0 -93 -34.5t-50 -88.5z" />
<glyph unicode="f" horiz-adv-x="870" d="M-184 -348l20 143h115q54 0 94 34.5t47 88.5l197 1270q18 110 118 188t242 78h430l-12 -72l-72 -71h-348q-54 0 -93 -34.5t-50 -88.5l-39 -256h399l-24 -144h-400l-133 -870q-18 -110 -117.5 -188t-240.5 -78h-133z" />
<glyph unicode="g" d="M98 -348l23 143h512q54 0 94 34.5t47 88.5l21 123h-400q-143 0 -219 78q-60 63 -60 147q0 20 3 41l82 512q18 110 117.5 188t240.5 78h615l-185 -1167q-18 -110 -117.5 -188t-240.5 -78h-533zM334 307q-2 -12 -2 -22q0 -39 23 -67q29 -34 83 -34h379l119 758h-379 q-54 0 -94 -34.5t-47 -88.5z" />
<glyph unicode="h" horiz-adv-x="1249" d="M102 0l226 1434h215l-56 -349h400q143 0 219 -78q61 -63 61 -147q0 -20 -4 -41l-129 -819h-215l129 819q2 12 2 22q0 39 -23 67q-29 34 -83 34h-379l-148 -942h-215z" />
<glyph unicode="i" horiz-adv-x="522" d="M92 0l170 1085h215l-170 -1085h-215zM287 1239l35 215h215l-35 -215h-215z" />
<glyph unicode="j" horiz-adv-x="552" d="M-268 -348l22 143h213q54 0 94.5 34.5t47.5 88.5l184 1167h215l-184 -1167q-18 -110 -117.5 -188t-241.5 -78h-233zM317 1239l35 215h215l-35 -215h-215z" />
<glyph unicode="k" horiz-adv-x="1177" d="M102 0l226 1434h215l-129 -820h245l310 471h205l-15 -92l-338 -450l228 -451l-15 -92h-205l-192 471h-246l-74 -471h-215z" />
<glyph unicode="l" horiz-adv-x="624" d="M141 246l187 1188h215l-187 -1188q-3 -14 -2 -26q0 -36 22 -62q30 -34 83 -35h61l-22 -143h-82q-140 0 -218 78q-61 62 -61 143q0 22 4 45z" />
<glyph unicode="m" horiz-adv-x="1832" d="M92 0l170 1085h133l21 -133h10q31 46 66 76q94 78 204 78h103q108 0 174 -62q29 -29 43 -61h10q23 33 59 61q78 62 175 62h215q143 0 217 -78q60 -63 60 -146q0 -20 -3 -42l-131 -840h-215l131 840q3 15 3 29q0 35 -20 59q-28 34 -85 35h-195q-54 0 -93 -34.5t-50 -88.5 l-131 -840h-215l131 840q3 14 3 26q0 36 -22 62q-30 34 -84 35h-102q-43 0 -83.5 -16.5t-67 -39t-48 -49t-31 -43t-12.5 -24.5l-125 -791h-215z" />
<glyph unicode="n" horiz-adv-x="1249" d="M92 0l170 1085h133l21 -133h10q31 46 66 76q94 78 204 78h195q143 0 217 -78q60 -63 61 -146q0 -20 -4 -42l-131 -840h-215l131 840q3 14 3 26q0 36 -22 62q-29 34 -83 35h-174q-100 0 -185 -89q-39 -39 -59 -86l-123 -788h-215z" />
<glyph unicode="o" d="M111 246l92 594q18 110 119 188t241 78h318q143 0 217 -78q60 -63 61 -146q0 -20 -4 -42l-92 -594q-21 -111 -120 -188.5t-241 -77.5h-317q-141 0 -218 78q-61 62 -61 143q0 22 5 45zM326 246q-3 -14 -3 -26q0 -36 22 -62q29 -34 83 -35h277q54 0 93 34.5t50 88.5l92 594 q3 14 3 26q0 36 -22 62q-29 34 -83 35h-277q-54 0 -93 -34.5t-50 -88.5z" />
<glyph unicode="p" d="M37 -348l225 1433h133l21 -133h10q31 46 66 76q94 78 204 78h185q143 0 217 -78q61 -63 61 -146q0 -21 -4 -42l-90 -574q-18 -110 -117.5 -188t-240.5 -78h-400l-55 -348h-215zM330 143h379q54 0 94 34.5t47 88.5l90 574q3 14 3 26q0 37 -22 62q-29 35 -83 35h-164 q-100 0 -185 -89q-39 -39 -59 -86z" />
<glyph unicode="q" d="M113 266l88 553q18 110 117.5 188t240.5 78h615l-226 -1433h-215l55 348h-399q-143 0 -219 78q-60 63 -60 147q0 20 3 41zM328 266q-2 -12 -2 -22q0 -39 23 -66q29 -35 83 -35h379l125 799h-379q-54 0 -94 -34.5t-47 -88.5z" />
<glyph unicode="r" horiz-adv-x="890" d="M92 0l170 1085h133l21 -133h10q31 46 66 76q94 78 204 78h267l-27 -164h-266q-96 0 -178 -78q-37 -34 -62 -76l-123 -788h-215z" />
<glyph unicode="s" horiz-adv-x="1085" d="M31 0l22 143h563q54 0 94.5 34.5t47.5 88.5l12 72q1 9 1 17q0 62 -79 75l-358 62q-100 14 -152 82q-39 51 -39 123q0 24 4 51l13 71q18 110 117.5 188t240.5 78h533l-11 -71l-73 -72h-451q-54 0 -94 -34.5t-47 -88.5l-13 -71q-1 -9 -1 -17q0 -62 79 -76l359 -61 q99 -14 151 -82q39 -51 39 -123q0 -24 -4 -51l-12 -72q-18 -110 -117.5 -188t-241.5 -78h-583z" />
<glyph unicode="t" horiz-adv-x="901" d="M127 942l23 143h174l159 287h103l-47 -287h307l-23 -143h-307l-108 -696q-3 -14 -3 -26q0 -36 22 -62q29 -34 83 -35h317l-22 -143h-338q-141 0 -218 78q-61 62 -61 143q0 22 5 45l108 696h-174z" />
<glyph unicode="u" horiz-adv-x="1249" d="M131 246l131 839h215l-131 -839q-3 -14 -2 -26q0 -36 22 -62q30 -34 83 -35h174q100 0 182 86q37 41 59 88l125 788h215l-170 -1085h-133l-20 133h-11q-30 -48 -65 -78q-90 -75 -205 -75h-194q-140 0 -218 78q-61 62 -61 143q0 22 4 45z" />
<glyph unicode="v" horiz-adv-x="1138" d="M156 993l14 92h205l153 -911h11l442 911h205l-15 -92l-526 -993h-276z" />
<glyph unicode="w" horiz-adv-x="1648" d="M176 993l14 92h205l25 -880h10l342 727h277l108 -727h10l303 880h205l-14 -92l-381 -993h-287l-108 748h-11l-342 -748h-286z" />
<glyph unicode="x" horiz-adv-x="1095" d="M0 0l14 92l428 451l-266 450l14 92h205l193 -409h10l320 409h204l-14 -92l-410 -450l289 -451l-14 -92h-205l-213 410h-10l-340 -410h-205z" />
<glyph unicode="y" horiz-adv-x="1105" d="M78 -348l22 143h103q112 0 172 123l31 62l4 20l-265 993l15 92h205l178 -890h10l405 890h205l-14 -92l-559 -1075q-63 -117 -167.5 -191.5t-242.5 -74.5h-102z" />
<glyph unicode="z" horiz-adv-x="1013" d="M0 0l20 133l730 789l2 20h-543l-49 72l10 71h870l-20 -133l-729 -788l-2 -21h624l-22 -143h-891z" />
<glyph unicode="{" horiz-adv-x="819" d="M123 522l27 174h20q60 0 107.5 39t58.5 94l70 441q24 144 129 225.5t286 81.5h103l-25 -164h-102q-61 0 -108 -40.5t-58 -102.5l-70 -441q-17 -104 -121 -172q-51 -30 -98 -43l-2 -10q45 -14 86 -43q83 -67 66 -172l-72 -450q-10 -61 24.5 -102.5t96.5 -41.5h102 l-27 -164h-102q-182 0 -262.5 82.5t-56.5 225.5l71 450q8 55 -27 94t-96 39h-20z" />
<glyph unicode="|" horiz-adv-x="593" d="M53 -430l318 2007h225l-317 -2007h-226z" />
<glyph unicode="}" horiz-adv-x="819" d="M-39 -369l27 164h102q61 0 108 41t58 103l72 450q17 107 118 172q50 29 99 43l2 10q-45 14 -86 43q-81 65 -64 172l70 441q10 61 -24.5 102t-96.5 41h-102l24 164h103q179 0 260.5 -83t60.5 -224l-69 -441q-11 -54 24 -93.5t96 -39.5h21l-27 -174h-20q-61 0 -108.5 -39 t-55.5 -94l-72 -450q-24 -144 -130.5 -226t-287.5 -82h-102z" />
<glyph unicode="~" horiz-adv-x="1024" d="M106 481l41 256q11 69 59.5 111.5t117.5 42.5h92q46 0 102 -37q21 -15 41 -35l129 -153l17 -17q14 -14 30 -14h21q17 0 29.5 11.5t17.5 29.5l31 194h174l-41 -256q-10 -69 -60 -111t-119 -42h-92q-53 0 -102 35q-27 19 -39 36l-129 154l-16 14q-21 17 -31 17h-21 q-17 0 -31.5 -12t-15.5 -29l-30 -195h-175z" />
<glyph unicode="&#xa2;" horiz-adv-x="1064" d="M113 266l88 553q18 110 117.5 188t240.5 78h41l25 144h225l-25 -144h267l-11 -71l-73 -72h-451q-54 0 -94 -34.5t-47 -88.5l-88 -553q-8 -54 21 -88.5t83 -34.5h512l-22 -143h-267l-24 -143h-225l24 143h-41q-143 0 -218.5 78t-57.5 188z" />
<glyph unicode="&#xa3;" horiz-adv-x="1157" d="M31 0l24 164h72q34 18 74 49q78 62 88 125l61 389h-153l22 143h154l49 318q18 110 118 188t242 78h410l-12 -72l-72 -71h-328q-54 0 -93 -34.5t-50 -88.5l-49 -318h338l-23 -143h-338l-61 -389q-17 -63 -90 -121q-44 -30 -70 -43l-2 -10h727l-25 -164h-1013z" />
<glyph unicode="&#xa5;" horiz-adv-x="1228" d="M121 184l24 164h349l16 92l-18 52h-322l25 163h235l-242 676l17 103h215l227 -768h21l469 768h215l-17 -103l-456 -676h237l-24 -163h-322l-35 -52l-16 -92h348l-25 -164h-348l-28 -184h-226l29 184h-348z" />
<glyph unicode="&#xa8;" horiz-adv-x="788" d="M213 1219l33 215h215l-33 -215h-215zM623 1219l32 215h215l-32 -215h-215z" />
<glyph unicode="&#xa9;" horiz-adv-x="1986" d="M143 266l144 901q24 143 127 225.5t270 82.5h963q167 0 245 -83t54 -225l-144 -901q-24 -142 -127 -224.5t-270 -82.5h-963q-168 0 -245.5 82.5t-53.5 224.5zM369 266q-10 -61 24 -102t96 -41h922q61 0 108 40.5t58 102.5l143 901q10 61 -24.5 102.5t-96.5 41.5h-921 q-61 0 -108 -41t-58 -103zM657 532l58 369q18 112 103.5 179t221.5 67h410l-12 -82l-74 -72h-328q-38 0 -69 -27t-37 -65l-58 -369q-6 -38 17 -65t61 -27h389l-24 -153h-410q-137 0 -201.5 67t-46.5 178z" />
<glyph unicode="&#xab;" horiz-adv-x="1064" d="M145 532l271 420h194l-14 -92l-215 -328l111 -327l-15 -92h-194zM565 532l271 420h194l-14 -92l-215 -328l110 -327l-14 -92h-195z" />
<glyph unicode="&#xad;" horiz-adv-x="1003" d="M111 573l26 164h840l-27 -164h-839z" />
<glyph unicode="&#xae;" horiz-adv-x="1986" d="M143 266l144 901q24 143 127 225.5t270 82.5h963q167 0 245 -83t54 -225l-144 -901q-24 -142 -127 -224.5t-270 -82.5h-963q-168 0 -245.5 82.5t-53.5 224.5zM369 266q-10 -61 24 -102t96 -41h922q61 0 108 40.5t58 102.5l143 901q10 61 -24.5 102.5t-96.5 41.5h-921 q-61 0 -108 -41t-58 -103zM608 287l135 860h451q137 0 201.5 -67.5t46.5 -178.5l-10 -61q-18 -105 -107 -164q-39 -26 -88 -41l164 -256l-15 -92h-204l-138 307h-174l-47 -307h-215zM895 748h215q38 0 69.5 27t37.5 65l10 61q6 38 -17 65t-61 27h-215z" />
<glyph unicode="&#xb4;" horiz-adv-x="593" d="M195 1106l235 328h246l-287 -328h-194z" />
<glyph unicode="&#xb8;" horiz-adv-x="624" d="M-59 -492l20 123h215q23 0 45 19.5t27 42.5l4 31q4 23 -12 42t-39 19h-164l35 215h133l-17 -92h82q85 0 131.5 -52.5t34.5 -131.5l-4 -31q-12 -79 -76 -132t-149 -53h-266z" />
<glyph unicode="&#xbb;" horiz-adv-x="1064" d="M78 113l14 92l217 327l-112 328l14 92h195l139 -420l-273 -419h-194zM498 113l14 92l217 327l-113 328l15 92h194l140 -420l-273 -419h-194z" />
<glyph unicode="&#x2c6;" horiz-adv-x="880" d="M199 1126l313 308h184l219 -308h-194l-135 185l-193 -185h-194z" />
<glyph unicode="&#x2da;" horiz-adv-x="655" d="M205 1167l16 103q11 65 67.5 114.5t131.5 49.5h143q77 0 119 -47t31 -117l-17 -103q-11 -70 -67 -116.5t-133 -46.5h-144q-77 0 -117.5 46.5t-29.5 116.5zM379 1167q-4 -23 8 -37t35 -14h41q50 0 59 51l17 103q6 51 -43 51h-41q-23 0 -39 -14t-21 -37z" />
<glyph unicode="&#x2dc;" horiz-adv-x="778" d="M201 1147l22 143q11 62 58 103t108 41h51q24 0 58 -21l28 -20l72 -72l14 -16q15 -15 31 -15q21 0 28 10t9 31l16 92h164l-24 -143q-11 -62 -58 -102.5t-108 -40.5h-52q-25 0 -57 20q-12 7 -26 21l-70 71l-16 15q-20 16 -31 16q-14 0 -21.5 -5t-10.5 -12t-6 -19 q-1 -3 -1 -5l-14 -92h-164z" />
<glyph unicode="&#x401;" horiz-adv-x="1208" d="M123 0l225 1434h952l-14 -93l-72 -71h-665l-76 -471h543l-25 -164h-542l-76 -471h727l-25 -164h-952zM520 1608l33 215h215l-33 -215h-215zM971 1608l33 215h215l-33 -215h-215z" />
<glyph unicode="&#x402;" horiz-adv-x="1402" d="M139 1270l25 164h921l-14 -93l-72 -71h-368l-60 -369h451q168 0 245.5 -82.5t53.5 -224.5l-47 -307q-24 -144 -130.5 -225.5t-287.5 -81.5h-72l27 163h72q61 0 108 41t58 103l47 307q10 61 -23.5 102t-95.5 41h-430l-117 -737h-225l201 1270h-267z" />
<glyph unicode="&#x403;" horiz-adv-x="1116" d="M123 0l225 1434h912l-15 -93l-71 -71h-625l-201 -1270h-225zM702 1597l236 328h246l-287 -328h-195z" />
<glyph unicode="&#x404;" d="M150 307l131 819q24 143 126 225.5t269 82.5h624l-14 -93l-72 -71h-542q-61 0 -108 -41t-58 -103l-53 -327h501l-24 -164h-502l-53 -328q-10 -61 24.5 -102t96.5 -41h604l-25 -164h-624q-168 0 -246.5 82.5t-54.5 224.5z" />
<glyph unicode="&#x405;" horiz-adv-x="1208" d="M41 0l25 164h634q61 0 108 40.5t58 102.5l23 144q10 53 -18 92t-83 51l-372 92q-122 30 -179.5 110.5t-37.5 207.5l20 122q24 143 126 225.5t269 82.5h594l-14 -93l-72 -71h-512q-61 0 -108 -41t-58 -103l-20 -122q-8 -54 19 -93t81 -51l375 -92q122 -30 180 -110 t35 -207l-22 -144q-24 -142 -126.5 -224.5t-269.5 -82.5h-655z" />
<glyph unicode="&#x406;" horiz-adv-x="593" d="M123 0l225 1434h225l-225 -1434h-225z" />
<glyph unicode="&#x407;" horiz-adv-x="634" d="M143 0l226 1434h225l-225 -1434h-226zM184 1556l35 216h215l-35 -216h-215zM604 1556l35 216h215l-35 -216h-215z" />
<glyph unicode="&#x408;" horiz-adv-x="1075" d="M-45 -20l27 163h501q61 0 108 41t58 103l180 1147h226l-181 -1147q-24 -142 -127 -224.5t-270 -82.5h-522z" />
<glyph unicode="&#x409;" horiz-adv-x="2027" d="M-45 -20l27 163h61q55 0 101.5 44t66.5 120l281 1127h839l-86 -543h400q168 0 246.5 -82.5t54.5 -224.5l-45 -277q-24 -142 -126.5 -224.5t-269.5 -82.5h-624l200 1270h-409l-236 -963q-39 -164 -141.5 -245.5t-278.5 -81.5h-61zM1130 164h379q61 0 108 40.5t58 102.5 l45 277q10 61 -24.5 102t-96.5 41h-378z" />
<glyph unicode="&#x40a;" horiz-adv-x="2027" d="M123 0l225 1434h225l-92 -584h533l92 584h225l-92 -584h399q168 0 245.5 -82.5t53.5 -224.5l-36 -236q-24 -142 -126.5 -224.5t-269.5 -82.5h-624l108 686h-532l-109 -686h-225zM1130 164h379q61 0 108 40.5t58 102.5l37 236q10 61 -23.5 102t-95.5 41h-379z" />
<glyph unicode="&#x40b;" horiz-adv-x="1423" d="M139 1270l25 164h921l-14 -93l-72 -71h-368l-60 -369h451q168 0 245.5 -82.5t53.5 -224.5l-92 -594h-225l92 594q10 61 -23.5 102t-95.5 41h-430l-117 -737h-225l201 1270h-267z" />
<glyph unicode="&#x40c;" horiz-adv-x="1341" d="M123 0l225 1434h225l-98 -625h277l415 625h215l-16 -103l-442 -604l288 -625l-14 -102h-215l-258 645h-276l-101 -645h-225zM737 1556l236 328h246l-287 -328h-195z" />
<glyph unicode="&#x40e;" horiz-adv-x="1280" d="M180 -20l27 163h133q100 0 197 144l26 41l-364 1003l16 103h215l268 -891h11l469 891h215l-17 -103l-604 -1044q-180 -307 -459 -307h-133zM541 1741l16 102h184l-16 -102q-9 -62 51 -62h144q62 0 71 62l17 102h184l-16 -102q-17 -100 -78 -152.5t-160 -52.5h-225 q-202 0 -172 205z" />
<glyph unicode="&#x40f;" horiz-adv-x="1413" d="M123 0l225 1434h225l-200 -1270h594l200 1270h226l-226 -1434h-1044zM522 0h246l-98 -287h-144z" />
<glyph unicode="&#x410;" horiz-adv-x="1341" d="M0 0l14 102l672 1332h297l250 -1332l-14 -102h-215l-60 348h-563l-166 -348h-215zM459 512h461l-111 717h-10z" />
<glyph unicode="&#x411;" horiz-adv-x="1331" d="M123 0l225 1434h952l-14 -93l-72 -71h-665l-64 -400h461q168 0 245.5 -82.5t53.5 -224.5l-41 -256q-24 -143 -126 -225t-269 -82h-686zM373 164h440q61 0 108 40.5t58 102.5l41 256q10 61 -24.5 102.5t-96.5 41.5h-440z" />
<glyph unicode="&#x412;" horiz-adv-x="1351" d="M123 0l225 1434h635q168 0 246.5 -83t54.5 -225l-27 -163q-18 -116 -110 -177q-37 -25 -88 -38v-11q52 -8 106 -39q100 -65 82 -186l-33 -205q-24 -143 -126 -225t-269 -82h-696zM373 164h450q61 0 108 40.5t58 102.5l33 205q10 61 -24.5 102t-96.5 41h-450zM477 819h389 q61 0 108 41t58 103l27 163q10 61 -24.5 102.5t-96.5 41.5h-389z" />
<glyph unicode="&#x413;" horiz-adv-x="1116" d="M123 0l225 1434h912l-15 -93l-71 -71h-625l-201 -1270h-225z" />
<glyph unicode="&#x414;" horiz-adv-x="1474" d="M-106 -287l69 451h113q25 13 71 49q73 58 91 125l274 1096h870l-200 -1270h194l-71 -451h-175l-4 287h-962l-98 -287h-172zM291 164h665l177 1106h-441l-229 -932q-16 -59 -94 -121q-37 -26 -76 -43z" />
<glyph unicode="&#x415;" horiz-adv-x="1208" d="M123 0l225 1434h952l-14 -93l-72 -71h-665l-76 -471h543l-25 -164h-542l-76 -471h727l-25 -164h-952z" />
<glyph unicode="&#x416;" horiz-adv-x="2007" d="M20 0l15 102l469 625l-234 604l17 103h215l198 -625h256l99 625h225l-98 -625h256l395 625h215l-16 -103l-422 -604l268 -625l-14 -102h-215l-238 645h-256l-100 -645h-226l101 645h-256l-438 -645h-216z" />
<glyph unicode="&#x417;" horiz-adv-x="1198" d="M0 0l25 164h645q61 0 108 40.5t58 102.5l30 195q10 61 -24.5 102t-96.5 41h-378l26 164h359q61 0 108 40.5t58 102.5l28 174q10 61 -24.5 102.5t-96.5 41.5h-542l-52 71l15 93h624q168 0 246.5 -83t54.5 -225l-28 -174q-17 -113 -129 -176q-49 -27 -109 -39l-2 -10 q53 -8 107 -39q100 -65 82 -186l-31 -195q-24 -143 -126 -225t-269 -82h-666z" />
<glyph unicode="&#x418;" horiz-adv-x="1413" d="M123 0l225 1434h225l-118 -758l-86 -348h10l768 1106h246l-226 -1434h-225l119 758l86 348h-10l-768 -1106h-246z" />
<glyph unicode="&#x419;" horiz-adv-x="1413" d="M123 0l225 1434h225l-118 -758l-86 -348h10l768 1106h246l-226 -1434h-225l119 758l86 348h-10l-768 -1106h-246zM608 1772l15 102h184l-14 -102q-12 -62 51 -62h143q60 0 72 62l14 102h184l-14 -102q-34 -205 -237 -205h-226q-100 0 -144.5 53t-27.5 152z" />
<glyph unicode="&#x41a;" horiz-adv-x="1341" d="M123 0l225 1434h225l-98 -625h277l415 625h215l-16 -103l-442 -604l288 -625l-14 -102h-215l-258 645h-276l-101 -645h-225z" />
<glyph unicode="&#x41b;" horiz-adv-x="1413" d="M-45 -20l27 163h61q55 0 101.5 44t66.5 120l281 1127h901l-226 -1434h-225l201 1270h-471l-236 -963q-39 -164 -141.5 -245.5t-278.5 -81.5h-61z" />
<glyph unicode="&#x41c;" horiz-adv-x="1996" d="M72 0l14 102l395 1332h307l203 -1055h10l535 1055h307l-26 -1332l-15 -102h-215l58 1208h-11l-522 -1034h-297l-194 1034h-11l-323 -1208h-215z" />
<glyph unicode="&#x41d;" horiz-adv-x="1413" d="M123 0l225 1434h225l-100 -635h594l100 635h226l-226 -1434h-225l100 635h-593l-101 -635h-225z" />
<glyph unicode="&#x41e;" horiz-adv-x="1392" d="M147 287l136 860q24 142 127 224.5t270 82.5h369q168 0 245.5 -82.5t53.5 -224.5l-136 -860q-24 -142 -127 -224.5t-270 -82.5h-369q-168 0 -245.5 82.5t-53.5 224.5zM373 287q-10 -61 24.5 -102.5t96.5 -41.5h327q61 0 108 41t58 103l135 860q10 61 -24.5 102t-96.5 41 h-327q-61 0 -108 -40.5t-58 -102.5z" />
<glyph unicode="&#x41f;" horiz-adv-x="1413" d="M123 0l225 1434h1045l-226 -1434h-225l201 1270h-594l-201 -1270h-225z" />
<glyph unicode="&#x420;" horiz-adv-x="1331" d="M123 0l225 1434h676q168 0 246.5 -83t54.5 -225l-55 -348q-24 -142 -127.5 -224.5t-270.5 -82.5h-450l-74 -471h-225zM449 635h430q61 0 107.5 40.5t57.5 102.5l56 348q10 61 -24.5 102.5t-96.5 41.5h-430z" />
<glyph unicode="&#x421;" d="M150 307l131 819q24 143 126 225.5t269 82.5h624l-14 -93l-72 -71h-542q-61 0 -108 -41t-58 -103l-131 -819q-10 -61 24.5 -102t96.5 -41h604l-25 -164h-624q-168 0 -246.5 82.5t-54.5 224.5z" />
<glyph unicode="&#x422;" horiz-adv-x="1146" d="M170 1270l25 164h1085l-14 -93l-72 -71h-369l-200 -1270h-226l201 1270h-430z" />
<glyph unicode="&#x423;" horiz-adv-x="1280" d="M180 -20l27 163h133q100 0 197 144l26 41l-364 1003l16 103h215l268 -891h11l469 891h215l-17 -103l-604 -1044q-180 -307 -459 -307h-133z" />
<glyph unicode="&#x424;" horiz-adv-x="1884" d="M133 389l107 676q24 142 127 224.5t270 82.5h348l25 164h225l-25 -164h349q168 0 245.5 -82.5t53.5 -224.5l-107 -676q-24 -142 -127 -224.5t-270 -82.5h-348l-27 -164h-225l26 164h-348q-168 0 -245.5 82.5t-53.5 224.5zM358 389q-10 -61 24.5 -102t96.5 -41h328 l151 962h-327q-61 0 -108 -40.5t-58 -102.5zM1032 246h328q61 0 108 40.5t58 102.5l106 676q10 61 -24.5 102t-96.5 41h-327z" />
<glyph unicode="&#x425;" horiz-adv-x="1239" d="M0 0l14 102l521 625l-295 604l16 103h215l217 -574h10l398 574h215l-17 -103l-483 -604l319 -625l-14 -102h-215l-248 573h-10l-428 -573h-215z" />
<glyph unicode="&#x426;" horiz-adv-x="1464" d="M123 0l225 1434h225l-200 -1270h573l201 1270h225l-201 -1270h195l-72 -451h-174l-4 287h-993z" />
<glyph unicode="&#x427;" horiz-adv-x="1331" d="M193 840l94 594h225l-94 -594q-10 -61 24.5 -102.5t96.5 -41.5h430l116 738h226l-226 -1434h-225l84 532h-450q-168 0 -246.5 83t-54.5 225z" />
<glyph unicode="&#x428;" horiz-adv-x="2088" d="M123 0l225 1434h225l-200 -1270h522l201 1270h225l-201 -1270h522l201 1270h225l-225 -1434h-1720z" />
<glyph unicode="&#x429;" horiz-adv-x="2160" d="M123 0l225 1434h225l-200 -1270h522l201 1270h225l-201 -1270h522l201 1270h225l-200 -1270h194l-71 -451h-174l-5 287h-1689z" />
<glyph unicode="&#x42a;" horiz-adv-x="1433" d="M139 1270l25 164h532l-82 -523h441q168 0 245.5 -82.5t53.5 -224.5l-47 -297q-24 -142 -126.5 -224.5t-269.5 -82.5h-665l200 1270h-307zM496 164h419q61 0 108 40.5t58 102.5l47 297q10 61 -24 102.5t-96 41.5h-420z" />
<glyph unicode="&#x42b;" horiz-adv-x="1904" d="M123 0l225 1434h225l-81 -523h440q168 0 245.5 -82.5t53.5 -224.5l-47 -297q-24 -142 -126.5 -224.5t-269.5 -82.5h-665zM373 164h420q61 0 107.5 40.5t57.5 102.5l48 297q10 61 -24.5 102.5t-96.5 41.5h-420zM1434 0l225 1434h225l-225 -1434h-225z" />
<glyph unicode="&#x42c;" horiz-adv-x="1331" d="M123 0l225 1434h225l-81 -523h460q168 0 245.5 -82.5t53.5 -224.5l-47 -297q-24 -143 -126 -225t-269 -82h-686zM373 164h440q61 0 108 40.5t58 102.5l47 297q10 61 -24.5 102.5t-96.5 41.5h-440z" />
<glyph unicode="&#x42d;" d="M20 0l25 164h604q61 0 108 40.5t58 102.5l53 328h-501l24 164h502l53 327q10 61 -24.5 102.5t-96.5 41.5h-542l-52 71l15 93h624q168 0 246.5 -83t54.5 -225l-131 -819q-24 -143 -126 -225t-269 -82h-625z" />
<glyph unicode="&#x42e;" horiz-adv-x="1925" d="M123 0l225 1434h225l-100 -635h307l56 348q24 142 127 224.5t270 82.5h348q168 0 245.5 -82.5t53.5 -224.5l-135 -860q-24 -142 -127 -224.5t-270 -82.5h-349q-168 0 -245.5 82.5t-53.5 224.5l56 348h-307l-101 -635h-225zM926 287q-10 -61 24.5 -102.5t96.5 -41.5h307 q61 0 108 41t58 103l135 860q10 61 -24.5 102t-96.5 41h-307q-61 0 -108 -40.5t-58 -102.5z" />
<glyph unicode="&#x42f;" horiz-adv-x="1351" d="M41 0l14 102l391 461q-80 16 -135 51q-56 31 -88 91.5t-18 144.5l45 276q24 143 126 225.5t269 82.5h686l-225 -1434h-225l84 543h-308l-401 -543h-215zM430 850q-10 -61 24.5 -102t96.5 -41h440l90 563h-440q-61 0 -108 -41t-58 -103z" />
<glyph unicode="&#x430;" horiz-adv-x="1177" d="M70 246l90 573q18 110 117.5 188t240.5 78h615l-170 -1085h-134l-20 133h-10q-29 -46 -66 -78q-90 -75 -205 -75h-184q-141 0 -218 78.5t-56 187.5zM285 246q-10 -54 19 -88.5t83 -34.5h164q100 0 182 86q39 43 60 88l102 645h-379q-54 0 -94 -34.5t-47 -88.5z" />
<glyph unicode="&#x431;" horiz-adv-x="1228" d="M131 246l127 809q25 165 134.5 266.5t264.5 122.5l555 72l5 -164l-555 -72q-59 -8 -116 -69.5t-73 -155.5l-12 -82h409q142 0 217.5 -78t57.5 -188l-72 -461q-21 -111 -119.5 -188.5t-240.5 -77.5h-307q-141 0 -218.5 78.5t-56.5 187.5zM346 246q-10 -54 19.5 -88.5 t83.5 -34.5h266q54 0 93 34.5t50 88.5l72 461q10 54 -19.5 88t-83.5 34h-389z" />
<glyph unicode="&#x432;" horiz-adv-x="1187" d="M92 0l170 1085h563q143 0 219 -78t58 -188l-12 -69q-17 -102 -111 -156q-44 -23 -92 -31l-2 -10q52 -8 108 -33q103 -55 86 -162l-14 -92q-18 -110 -117.5 -188t-240.5 -78h-615zM330 143h379q54 0 94 34.5t47 88.5l14 92q10 54 -19 88.5t-83 34.5h-379zM406 625h327 q54 0 94 34.5t47 88.5l13 71q8 54 -21.5 88.5t-83.5 34.5h-327z" />
<glyph unicode="&#x433;" horiz-adv-x="1095" d="M82 266l12 74q17 107 88.5 174.5t177.5 81.5l367 61q98 15 107 93l12 69q8 54 -21.5 88.5t-83.5 34.5h-440l-49 72l10 71h522q143 0 219 -78t58 -188l-12 -69q-17 -107 -88.5 -174.5t-176.5 -81.5l-368 -62q-95 -15 -107 -92l-12 -74q-8 -54 21 -88.5t83 -34.5h523 l-23 -143h-543q-143 0 -218.5 78t-57.5 188z" />
<glyph unicode="&#x434;" horiz-adv-x="1228" d="M111 246l71 461q18 110 118.5 188t242.5 78h409l13 82q16 93 -22.5 155t-96.5 70l-469 72l57 164l469 -72q149 -21 225 -122.5t52 -266.5l-127 -809q-21 -111 -120 -188.5t-241 -77.5h-307q-141 0 -218 78.5t-56 187.5zM326 246q-10 -54 19 -88.5t83 -34.5h266 q54 0 93.5 34.5t50.5 88.5l92 583h-389q-54 0 -93.5 -34t-50.5 -88z" />
<glyph unicode="&#x435;" horiz-adv-x="1146" d="M113 266l90 574q18 110 119 188t241 78h266q143 0 218 -78t57 -188l-21 -133q-18 -110 -117.5 -188.5t-240.5 -78.5h-369l-28 -174q-8 -54 21 -88.5t83 -34.5h522l-22 -143h-543q-143 0 -218.5 78t-57.5 188zM379 584h348q54 0 94 34.5t47 88.5l21 133q10 54 -19.5 88.5 t-83.5 34.5h-225q-54 0 -93 -34.5t-50 -88.5z" />
<glyph unicode="&#x436;" horiz-adv-x="1730" d="M20 0l15 92l346 451l-174 450l14 92h205l141 -471h226l73 471h215l-73 -471h225l289 471h204l-14 -92l-317 -450l207 -451l-15 -92h-205l-172 471h-225l-74 -471h-215l74 471h-225l-320 -471h-205z" />
<glyph unicode="&#x437;" horiz-adv-x="1064" d="M0 0l23 143h563q54 0 94 34.5t47 88.5l14 92q10 54 -19 88.5t-83 34.5h-317l22 144h297q54 0 94 34.5t47 88.5l13 71q8 54 -21.5 88.5t-83.5 34.5h-461l-49 72l10 71h543q143 0 219 -78t58 -188l-13 -69q-17 -102 -127 -156q-54 -23 -106 -31l-2 -10q52 -8 108 -33 q103 -55 86 -162l-14 -92q-18 -110 -117.5 -188t-240.5 -78h-584z" />
<glyph unicode="&#x438;" horiz-adv-x="1249" d="M131 246l131 839h215l-131 -839q-10 -54 19.5 -88.5t83.5 -34.5h174q100 0 182 86q37 41 59 88l125 788h215l-170 -1085h-133l-20 133h-11q-30 -48 -65 -78q-90 -75 -205 -75h-194q-141 0 -218.5 78.5t-56.5 187.5z" />
<glyph unicode="&#x439;" horiz-adv-x="1249" d="M131 246l131 839h215l-131 -839q-10 -54 19.5 -88.5t83.5 -34.5h174q100 0 182 86q37 41 59 88l125 788h215l-170 -1085h-133l-20 133h-11q-30 -48 -65 -78q-90 -75 -205 -75h-194q-141 0 -218.5 78.5t-56.5 187.5zM481 1423l15 93h174l-15 -93q-12 -61 52 -61h143 q60 0 72 61l14 93h174l-14 -93q-17 -93 -77 -143.5t-159 -50.5h-205q-100 0 -145.5 51t-28.5 143z" />
<glyph unicode="&#x43a;" horiz-adv-x="1167" d="M92 0l170 1085h215l-74 -471h246l309 471h205l-14 -92l-338 -450l227 -451l-14 -92h-205l-192 471h-246l-74 -471h-215z" />
<glyph unicode="&#x43b;" horiz-adv-x="1228" d="M-45 -20l22 143h62q49 0 88.5 38t56.5 105l201 819h799l-170 -1085h-215l147 942h-389l-158 -676q-30 -127 -132 -206.5t-251 -79.5h-61z" />
<glyph unicode="&#x43c;" horiz-adv-x="1669" d="M51 0l15 92l288 993h287l174 -778h10l420 778h287l-23 -993l-14 -92h-205l47 881h-10l-397 -758h-277l-155 758h-11l-231 -881h-205z" />
<glyph unicode="&#x43d;" horiz-adv-x="1249" d="M92 0l170 1085h215l-71 -460h512l71 460h215l-170 -1085h-215l76 481h-512l-76 -481h-215z" />
<glyph unicode="&#x43e;" d="M111 246l92 594q18 110 119 188t241 78h318q143 0 217.5 -78t56.5 -188l-92 -594q-21 -111 -120 -188.5t-241 -77.5h-317q-141 0 -218 78.5t-56 187.5zM326 246q-10 -54 19 -88.5t83 -34.5h277q54 0 93 34.5t50 88.5l92 594q10 54 -19 88.5t-83 34.5h-277 q-54 0 -93 -34.5t-50 -88.5z" />
<glyph unicode="&#x43f;" horiz-adv-x="1249" d="M92 0l170 1085h133l21 -133h10q31 46 66 76q94 78 204 78h195q143 0 217.5 -78t56.5 -188l-131 -840h-215l131 840q10 54 -19 88.5t-83 34.5h-174q-100 0 -185 -89q-39 -39 -59 -86l-123 -788h-215z" />
<glyph unicode="&#x440;" d="M37 -348l225 1433h133l21 -133h10q31 46 66 76q94 78 204 78h185q143 0 217.5 -78t56.5 -188l-90 -574q-18 -110 -117.5 -188t-240.5 -78h-400l-55 -348h-215zM330 143h379q54 0 94 34.5t47 88.5l90 574q10 54 -19 88.5t-83 34.5h-164q-100 0 -185 -89q-39 -39 -59 -86z " />
<glyph unicode="&#x441;" horiz-adv-x="1064" d="M113 266l88 553q18 110 117.5 188t240.5 78h533l-11 -71l-73 -72h-451q-54 0 -94 -34.5t-47 -88.5l-88 -553q-8 -54 21 -88.5t83 -34.5h512l-22 -143h-533q-143 0 -218.5 78t-57.5 188z" />
<glyph unicode="&#x442;" horiz-adv-x="1832" d="M92 0l170 1085h133l21 -133h10q31 46 66 76q94 78 204 78h103q108 0 174 -62q29 -29 43 -61h10q23 33 59 61q78 62 175 62h215q143 0 217.5 -78t56.5 -188l-131 -840h-215l131 840q11 54 -17 88.5t-85 34.5h-195q-54 0 -93 -34.5t-50 -88.5l-131 -840h-215l131 840 q10 54 -19.5 88.5t-83.5 34.5h-102q-43 0 -83.5 -16.5t-67 -39t-48 -49t-31 -43t-12.5 -24.5l-125 -791h-215z" />
<glyph unicode="&#x443;" horiz-adv-x="1105" d="M78 -348l22 143h103q112 0 172 123l31 62l4 20l-265 993l15 92h205l178 -890h10l405 890h205l-14 -92l-559 -1075q-63 -117 -167.5 -191.5t-242.5 -74.5h-102z" />
<glyph unicode="&#x444;" horiz-adv-x="1628" d="M113 266l88 553q18 110 117.5 188t240.5 78h256l59 369h216l-60 -369h256q143 0 219 -78t58 -188l-88 -553q-18 -110 -117.5 -188t-241.5 -78h-256l-55 -348h-215l55 348h-256q-143 0 -218.5 78t-57.5 188zM328 266q-8 -54 21 -88.5t83 -34.5h236l125 799h-236 q-54 0 -94 -34.5t-47 -88.5zM883 143h235q54 0 94.5 34.5t47.5 88.5l88 553q8 54 -21.5 88.5t-83.5 34.5h-235z" />
<glyph unicode="&#x445;" horiz-adv-x="1095" d="M0 0l14 92l428 451l-266 450l14 92h205l193 -409h10l320 409h204l-14 -92l-410 -450l289 -451l-14 -92h-205l-213 410h-10l-340 -410h-205z" />
<glyph unicode="&#x446;" horiz-adv-x="1290" d="M131 246l131 839h215l-131 -839q-10 -54 19.5 -88.5t83.5 -34.5h153q100 0 182 86q39 43 60 88l125 788h215l-131 -839q-8 -47 15.5 -75t70.5 -28h71l-65 -409h-154l-8 266q-46 7 -83.5 50t-39.5 83h-10q-29 -46 -66 -78q-90 -75 -204 -75h-174q-141 0 -218.5 78.5 t-56.5 187.5z" />
<glyph unicode="&#x447;" horiz-adv-x="1187" d="M152 635l69 450h215l-69 -450q-10 -54 19 -88.5t83 -34.5h369l90 573h215l-170 -1085h-215l57 369h-389q-143 0 -217.5 78t-56.5 188z" />
<glyph unicode="&#x448;" horiz-adv-x="1812" d="M131 246l131 839h215l-131 -839q-11 -54 17.5 -88.5t85.5 -34.5h184q54 0 93 34.5t50 88.5l131 839h215l-131 -839q-10 -54 19.5 -88.5t83.5 -34.5h92q25 0 49 5t43.5 15t37 21t32 25.5t26 27t21.5 27t15.5 23.5t11.5 19l5 9l125 790h215l-170 -1085h-133l-20 133h-10 q-29 -46 -66 -78q-90 -75 -205 -75h-92q-109 0 -174 61q-29 29 -43 61h-10q-21 -31 -60 -61q-77 -61 -174 -61h-204q-141 0 -218.5 78.5t-56.5 187.5z" />
<glyph unicode="&#x449;" horiz-adv-x="1873" d="M131 246l131 839h215l-131 -839q-11 -54 17.5 -88.5t85.5 -34.5h184q54 0 93 34.5t50 88.5l131 839h215l-131 -839q-10 -54 19.5 -88.5t83.5 -34.5h92q25 0 49 5t43.5 15t37 21t32 25.5t26 27t21.5 27t15.5 23.5t11.5 19l5 9l125 790h215l-131 -839q-8 -47 15.5 -75 t70.5 -28h72l-65 -409h-154l-8 266q-46 7 -83.5 50t-39.5 83h-10q-29 -46 -66 -78q-90 -75 -205 -75h-92q-109 0 -174 61q-29 29 -43 61h-10q-21 -31 -60 -61q-77 -61 -174 -61h-204q-141 0 -218.5 78.5t-56.5 187.5z" />
<glyph unicode="&#x44a;" horiz-adv-x="1249" d="M86 942l23 143h481l-58 -368h359q142 0 217 -78t57 -188l-28 -185q-18 -110 -117.5 -188t-241.5 -78h-573l147 942h-266zM442 143h338q54 0 94.5 34.5t47.5 88.5l28 185q10 54 -19 88t-83 34h-338z" />
<glyph unicode="&#x44b;" horiz-adv-x="1628" d="M92 0l170 1085h215l-57 -368h358q142 0 217.5 -78t57.5 -188l-29 -185q-18 -110 -117.5 -188t-240.5 -78h-574zM330 143h338q54 0 94 34.5t47 88.5l29 185q10 54 -19.5 88t-83.5 34h-338zM1198 0l170 1085h215l-170 -1085h-215z" />
<glyph unicode="&#x44c;" horiz-adv-x="1157" d="M92 0l170 1085h215l-57 -368h379q142 0 217 -78t57 -188l-29 -185q-18 -110 -117.5 -188t-240.5 -78h-594zM330 143h358q54 0 94 34.5t47 88.5l29 185q10 54 -19 88t-83 34h-359z" />
<glyph unicode="&#x44d;" horiz-adv-x="1064" d="M20 0l23 143h512q54 0 94 34.5t47 88.5l35 215h-409l22 144h410l30 194q8 54 -21 88.5t-83 34.5h-451l-51 62l12 81h533q143 0 218.5 -78t57.5 -188l-88 -553q-18 -110 -117.5 -188t-240.5 -78h-533z" />
<glyph unicode="&#x44e;" horiz-adv-x="1679" d="M92 0l170 1085h215l-71 -460h266l33 215q18 110 119 188t241 78h276q143 0 218 -78t57 -188l-92 -594q-21 -111 -120 -188.5t-241 -77.5h-276q-141 0 -218.5 78.5t-56.5 187.5l37 235h-266l-76 -481h-215zM827 246q-10 -54 19.5 -88.5t83.5 -34.5h235q54 0 93.5 34.5 t50.5 88.5l92 594q10 54 -19.5 88.5t-83.5 34.5h-235q-54 0 -93 -34.5t-50 -88.5z" />
<glyph unicode="&#x44f;" horiz-adv-x="1177" d="M31 0l14 92l315 318q-66 12 -110 45q-106 68 -86 200l26 164q18 110 117.5 188t241.5 78h584l-170 -1085h-215l61 389h-246l-327 -389h-205zM379 655q-8 -54 21 -88.5t83 -34.5h348l64 410h-348q-54 0 -94 -34.5t-47 -88.5z" />
<glyph unicode="&#x451;" horiz-adv-x="1146" d="M113 266l90 574q18 110 119 188t241 78h266q143 0 218 -78t57 -188l-21 -133q-18 -110 -117.5 -188.5t-240.5 -78.5h-369l-28 -174q-8 -54 21 -88.5t83 -34.5h522l-22 -143h-543q-143 0 -218.5 78t-57.5 188zM379 584h348q54 0 94 34.5t47 88.5l21 133q10 54 -19.5 88.5 t-83.5 34.5h-225q-54 0 -93 -34.5t-50 -88.5zM395 1270l33 215h215l-33 -215h-215zM825 1270l33 215h215l-33 -215h-215z" />
<glyph unicode="&#x452;" horiz-adv-x="1239" d="M127 1065l23 143h174l147 226h102l-34 -226h307l-23 -143h-307l-29 -184h400q142 0 217 -78.5t57 -188.5l-57 -368q-21 -112 -123 -189t-258 -77h-61l22 143h61q54 0 93.5 34.5t50.5 88.5l57 368q10 54 -19 88.5t-83 34.5h-379l-117 -737h-215l168 1065h-174z" />
<glyph unicode="&#x453;" horiz-adv-x="1093" d="M82 266l12 72q17 107 88.5 174.5t175.5 81.5l367 61q94 15 106 93l13 71q8 54 -21.5 88.5t-83.5 34.5h-438l-49 72l10 71h520q143 0 219 -78t58 -188l-12 -71q-17 -107 -88.5 -174.5t-176.5 -81.5l-366 -62q-95 -15 -107 -92l-12 -72q-8 -54 21 -88.5t83 -34.5h521 l-23 -143h-541q-143 0 -218.5 78t-57.5 188zM584 1249l235 328h246l-287 -328h-194z" />
<glyph unicode="&#x454;" horiz-adv-x="1064" d="M113 266l88 553q18 110 117.5 188t240.5 78h533l-13 -81l-71 -62h-451q-54 0 -94 -34.5t-47 -88.5l-31 -194h410l-23 -144h-410l-34 -215q-8 -54 21 -88.5t83 -34.5h512l-22 -143h-533q-143 0 -218.5 78t-57.5 188z" />
<glyph unicode="&#x455;" horiz-adv-x="1085" d="M31 0l22 143h563q54 0 94.5 34.5t47.5 88.5l12 72q12 77 -78 92l-358 62q-101 14 -152.5 81.5t-34.5 174.5l13 71q18 110 117.5 188t240.5 78h533l-11 -71l-73 -72h-451q-54 0 -94 -34.5t-47 -88.5l-13 -71q-12 -78 78 -93l359 -61q100 -14 151.5 -81.5t34.5 -174.5 l-12 -72q-18 -110 -117.5 -188t-241.5 -78h-583z" />
<glyph unicode="&#x456;" horiz-adv-x="522" d="M92 0l170 1085h215l-170 -1085h-215zM287 1239l35 215h215l-35 -215h-215z" />
<glyph unicode="&#x457;" horiz-adv-x="624" d="M133 1239l35 215h215l-35 -215h-215zM143 0l170 1085h215l-170 -1085h-215zM543 1239l35 215h215l-35 -215h-215z" />
<glyph unicode="&#x458;" horiz-adv-x="552" d="M-268 -348l22 143h213q54 0 94.5 34.5t47.5 88.5l184 1167h215l-184 -1167q-18 -110 -117.5 -188t-241.5 -78h-233zM317 1239l35 215h215l-35 -215h-215z" />
<glyph unicode="&#x459;" horiz-adv-x="1781" d="M-45 -20l22 143h62q49 0 88.5 38t56.5 105l201 819h748l-62 -389h348q143 0 219 -78t58 -188l-27 -164q-18 -110 -117.5 -188t-240.5 -78h-563l147 942h-338l-158 -676q-30 -127 -132 -206.5t-251 -79.5h-61zM985 143h328q54 0 94 34.5t47 88.5l27 164q8 54 -21.5 88.5 t-83.5 34.5h-327z" />
<glyph unicode="&#x45a;" horiz-adv-x="1812" d="M92 0l170 1085h215l-65 -419h471l65 419h215l-65 -419h348q142 0 217 -78.5t57 -188.5l-20 -133q-18 -110 -117.5 -188t-241.5 -78h-563l82 522h-471l-82 -522h-215zM1016 143h327q54 0 94.5 34.5t47.5 88.5l20 133q10 54 -19 88.5t-83 34.5h-328z" />
<glyph unicode="&#x45b;" horiz-adv-x="1259" d="M127 1065l23 143h174l147 226h102l-34 -226h307l-23 -143h-307l-29 -184h400q142 0 217 -78.5t57 -188.5l-96 -614h-215l96 614q10 54 -19 88.5t-83 34.5h-379l-117 -737h-215l168 1065h-174z" />
<glyph unicode="&#x45c;" horiz-adv-x="1167" d="M92 0l170 1085h215l-74 -471h246l309 471h205l-14 -92l-338 -450l227 -451l-14 -92h-205l-192 471h-246l-74 -471h-215zM578 1208l235 328h246l-287 -328h-194z" />
<glyph unicode="&#x45e;" horiz-adv-x="1105" d="M78 -348l22 143h103q112 0 172 123l31 62l4 20l-265 993l15 92h205l178 -890h10l405 890h205l-14 -92l-559 -1075q-63 -117 -167.5 -191.5t-242.5 -74.5h-102zM410 1423l14 93h174l-14 -93q-12 -61 51 -61h143q60 0 72 61l14 93h174l-14 -93q-17 -93 -77 -143.5 t-159 -50.5h-204q-100 0 -145.5 51t-28.5 143z" />
<glyph unicode="&#x45f;" horiz-adv-x="1249" d="M92 0l170 1085h215l-147 -942h512l147 942h215l-170 -1085h-358l-84 -266h-143l2 266h-359z" />
<glyph unicode="&#x472;" horiz-adv-x="1392" d="M147 287l136 860q24 142 127 224.5t270 82.5h369q168 0 245.5 -82.5t53.5 -224.5l-136 -860q-24 -142 -127 -224.5t-270 -82.5h-369q-168 0 -245.5 82.5t-53.5 224.5zM373 287q-10 -61 24.5 -102.5t96.5 -41.5h327q61 0 108 41t58 103l55 348h-614zM453 799h614l55 348 q10 61 -24.5 102t-96.5 41h-327q-61 0 -108 -40.5t-58 -102.5z" />
<glyph unicode="&#x473;" d="M111 246l92 594q18 110 119 188t241 78h318q143 0 217.5 -78t56.5 -188l-92 -594q-21 -111 -120 -188.5t-241 -77.5h-317q-141 0 -218 78.5t-56 187.5zM326 246q-10 -54 19 -88.5t83 -34.5h277q54 0 93 34.5t50 88.5l37 235h-523zM385 625h522l33 215q10 54 -19 88.5 t-83 34.5h-277q-54 0 -93 -34.5t-50 -88.5z" />
<glyph unicode="&#x490;" horiz-adv-x="1116" d="M123 0l225 1434h699l83 215h164l-59 -379h-686l-201 -1270h-225z" />
<glyph unicode="&#x491;" horiz-adv-x="972" d="M92 0l170 1085h584l84 205h164l-56 -348h-583l-148 -942h-215z" />
<glyph unicode="&#x492;" horiz-adv-x="1116" d="M80 635l24 164h144l100 635h912l-15 -93l-71 -71h-625l-76 -471h410l-25 -164h-409l-101 -635h-225l100 635h-143z" />
<glyph unicode="&#x493;" horiz-adv-x="972" d="M49 451l23 143h112l78 491h799l-10 -71l-74 -72h-522l-56 -348h349l-23 -143h-348l-70 -451h-215l70 451h-113z" />
<glyph unicode="&#x496;" horiz-adv-x="2027" d="M20 0l15 102l469 625l-234 604l17 103h215l198 -625h256l99 625h225l-98 -625h256l395 625h215l-16 -103l-422 -604l241 -563h140l-72 -451h-174l-4 287h-92l-238 645h-256l-100 -645h-226l101 645h-256l-438 -645h-216z" />
<glyph unicode="&#x497;" horiz-adv-x="1751" d="M20 0l15 92l346 451l-174 450l14 92h205l141 -471h226l73 471h215l-73 -471h225l289 471h204l-14 -92l-317 -450l182 -400h135l-65 -409h-164l-8 266h-93l-172 471h-225l-74 -471h-215l74 471h-225l-320 -471h-205z" />
<glyph unicode="&#x498;" horiz-adv-x="1198" d="M0 0l25 164h645q61 0 108 40.5t58 102.5l30 195q10 61 -24.5 102t-96.5 41h-378l26 164h359q61 0 108 40.5t58 102.5l28 174q10 61 -24.5 102.5t-96.5 41.5h-542l-52 71l15 93h624q168 0 246.5 -83t54.5 -225l-28 -174q-17 -113 -129 -176q-49 -27 -109 -39l-2 -10 q53 -8 107 -39q100 -65 82 -186l-31 -195q-24 -143 -126 -225t-269 -82l-25 -143q-18 -102 -88.5 -158.5t-190.5 -56.5h-194l20 133h174q83 0 95 82l24 143h-481z" />
<glyph unicode="&#x499;" horiz-adv-x="1064" d="M0 0l23 143h563q54 0 94 34.5t47 88.5l14 92q10 54 -19 88.5t-83 34.5h-317l22 144h297q54 0 94 34.5t47 88.5l13 71q8 54 -21.5 88.5t-83.5 34.5h-461l-49 72l10 71h543q143 0 219 -78t58 -188l-13 -69q-17 -102 -127 -156q-54 -23 -106 -31l-2 -10q52 -8 108 -33 q103 -55 86 -162l-14 -92q-18 -110 -117.5 -188t-240.5 -78l-21 -123q-18 -102 -88.5 -158.5t-191.5 -56.5h-164l22 133h144q82 0 94 82l20 123h-399z" />
<glyph unicode="&#x49a;" horiz-adv-x="1361" d="M123 0l225 1434h225l-98 -625h277l415 625h215l-16 -103l-442 -604l260 -563h141l-72 -451h-174l-4 287h-92l-258 645h-276l-101 -645h-225z" />
<glyph unicode="&#x49b;" horiz-adv-x="1187" d="M92 0l170 1085h215l-74 -471h246l309 471h205l-14 -92l-338 -450l201 -400h137l-66 -409h-163l-9 266h-92l-192 471h-246l-74 -471h-215z" />
<glyph unicode="&#x49c;" horiz-adv-x="1341" d="M123 0l225 1434h225l-98 -625h62l28 184h174l-28 -184h41l415 625h215l-16 -103l-442 -604l288 -625l-14 -102h-215l-258 645h-41l-29 -184h-174l29 184h-61l-101 -645h-225z" />
<glyph unicode="&#x49d;" horiz-adv-x="1167" d="M92 0l170 1085h215l-74 -471h41l27 164h164l-27 -164h41l309 471h205l-14 -92l-338 -450l227 -451l-14 -92h-205l-192 471h-41l-29 -184h-164l29 184h-41l-74 -471h-215z" />
<glyph unicode="&#x4a0;" horiz-adv-x="1361" d="M139 1270l25 164h430l-98 -625h276l416 625h215l-17 -103l-442 -604l289 -625l-14 -102h-215l-259 645h-276l-100 -645h-226l201 1270h-205z" />
<glyph unicode="&#x4a1;" horiz-adv-x="1187" d="M84 922l25 163h389l-74 -471h246l309 471h205l-15 -92l-338 -450l228 -451l-15 -92h-204l-193 471h-246l-73 -471h-215l145 922h-174z" />
<glyph unicode="&#x4a2;" horiz-adv-x="1413" d="M123 0l225 1434h225l-100 -635h594l100 635h226l-201 -1270h123l-72 -451h-174l-4 287h-123l100 635h-593l-101 -635h-225z" />
<glyph unicode="&#x4a3;" horiz-adv-x="1249" d="M92 0l170 1085h215l-71 -460h512l71 460h215l-147 -942h102l-65 -409h-164l-8 266h-103l76 481h-512l-76 -481h-215z" />
<glyph unicode="&#x4aa;" d="M150 307l131 819q24 143 126 225.5t269 82.5h624l-14 -93l-72 -71h-542q-61 0 -108 -41t-58 -103l-131 -819q-10 -61 24.5 -102t96.5 -41h604l-25 -164h-440l-25 -154q-12 -82 68 -82h174l-21 -133h-194q-121 0 -175 57t-36 158l25 154q-168 0 -246.5 82.5t-54.5 224.5z " />
<glyph unicode="&#x4ab;" horiz-adv-x="1064" d="M113 266l88 553q18 110 117.5 188t240.5 78h533l-11 -71l-73 -72h-451q-54 0 -94 -34.5t-47 -88.5l-88 -553q-8 -54 21 -88.5t83 -34.5h512l-22 -143h-349l-20 -123q-12 -82 70 -82h143l-23 -133h-163q-121 0 -175 57t-36 158l20 123q-143 0 -218.5 78t-57.5 188z" />
<glyph unicode="&#x4ae;" horiz-adv-x="1228" d="M188 1331l17 103h215l227 -768h21l469 768h215l-17 -103l-600 -891l-69 -440h-226l70 440z" />
<glyph unicode="&#x4af;" horiz-adv-x="1138" d="M156 993l14 92h205l153 -911h11l442 911h205l-15 -92l-563 -1024l-49 -317h-215l49 317z" />
<glyph unicode="&#x4b0;" horiz-adv-x="1228" d="M188 1331l17 103h215l227 -768h21l469 768h215l-17 -103l-600 -891h266l-26 -164h-266l-43 -276h-226l43 276h-266l27 164h266z" />
<glyph unicode="&#x4b1;" horiz-adv-x="1138" d="M152 -133l26 164h201l-223 962l14 92h205l153 -911h11l442 911h205l-15 -92l-528 -962h201l-27 -164h-225l-33 -215h-215l33 215h-225z" />
<glyph unicode="&#x4b2;" horiz-adv-x="1259" d="M0 0l14 102l521 625l-295 604l16 103h215l217 -574h10l398 574h215l-17 -103l-483 -604l289 -563h123l-72 -451h-174l-4 287h-72l-248 573h-10l-428 -573h-215z" />
<glyph unicode="&#x4b3;" horiz-adv-x="1105" d="M0 0l14 92l428 451l-266 450l14 92h205l193 -409h10l320 409h204l-14 -92l-410 -450l256 -400h113l-66 -409h-163l-9 266h-61l-213 410h-10l-340 -410h-205z" />
<glyph unicode="&#x4b8;" horiz-adv-x="1331" d="M193 840l94 594h225l-94 -594q-10 -61 24.5 -102.5t96.5 -41.5h51l31 185h194l-31 -185h185l116 738h226l-226 -1434h-225l84 532h-184l-31 -184h-194l30 184h-71q-168 0 -246.5 83t-54.5 225z" />
<glyph unicode="&#x4b9;" horiz-adv-x="1187" d="M152 635l69 450h215l-69 -450q-10 -54 19 -88.5t83 -34.5h41l29 174h163l-28 -174h164l90 573h215l-170 -1085h-215l57 369h-164l-26 -174h-164l26 174h-61q-143 0 -217.5 78t-56.5 188z" />
<glyph unicode="&#x4ba;" horiz-adv-x="1331" d="M143 0l226 1434h225l-84 -533h451q168 0 245.5 -82.5t53.5 -224.5l-93 -594h-225l92 594q10 61 -23.5 102t-95.5 41h-430l-116 -737h-226z" />
<glyph unicode="&#x4bb;" horiz-adv-x="1249" d="M102 0l226 1434h215l-56 -349h400q143 0 218.5 -78t57.5 -188l-129 -819h-215l129 819q8 54 -21 88.5t-83 34.5h-379l-148 -942h-215z" />
<glyph unicode="&#x4d8;" horiz-adv-x="1392" d="M147 287l84 532h840l49 307q10 61 -24.5 102.5t-96.5 41.5h-614l25 164h634q168 0 247 -83t55 -225l-134 -839q-24 -142 -127 -224.5t-270 -82.5h-369q-168 0 -245.5 82.5t-53.5 224.5zM373 287q-10 -61 24.5 -102.5t96.5 -41.5h327q61 0 108 41t58 103l57 368h-614z" />
<glyph unicode="&#x4d9;" horiz-adv-x="1167" d="M111 246l59 379h686l31 194q8 54 -21.5 88.5t-83.5 34.5h-522l23 143h542q143 0 219 -78t58 -188l-90 -573q-21 -111 -120 -188.5t-241 -77.5h-266q-141 0 -218 78.5t-56 187.5zM326 246q-10 -54 19 -88.5t83 -34.5h225q54 0 93.5 34.5t50.5 88.5l37 235h-472z" />
<glyph unicode="&#x2000;" horiz-adv-x="962" />
<glyph unicode="&#x2001;" horiz-adv-x="1925" />
<glyph unicode="&#x2002;" horiz-adv-x="962" />
<glyph unicode="&#x2003;" horiz-adv-x="1925" />
<glyph unicode="&#x2004;" horiz-adv-x="641" />
<glyph unicode="&#x2005;" horiz-adv-x="481" />
<glyph unicode="&#x2006;" horiz-adv-x="320" />
<glyph unicode="&#x2007;" horiz-adv-x="320" />
<glyph unicode="&#x2008;" horiz-adv-x="240" />
<glyph unicode="&#x2009;" horiz-adv-x="385" />
<glyph unicode="&#x200a;" horiz-adv-x="106" />
<glyph unicode="&#x2010;" horiz-adv-x="1003" d="M111 573l26 164h840l-27 -164h-839z" />
<glyph unicode="&#x2011;" horiz-adv-x="1003" d="M111 573l26 164h840l-27 -164h-839z" />
<glyph unicode="&#x2012;" horiz-adv-x="1003" d="M111 573l26 164h840l-27 -164h-839z" />
<glyph unicode="&#x2013;" horiz-adv-x="1208" d="M104 532l25 164h1045l-25 -164h-1045z" />
<glyph unicode="&#x2014;" horiz-adv-x="1740" d="M104 532l25 164h1577l-25 -164h-1577z" />
<glyph unicode="&#x2018;" horiz-adv-x="460" d="M217 983l27 174l145 277h113l-70 -451h-215z" />
<glyph unicode="&#x2019;" horiz-adv-x="460" d="M217 983l70 451h215l-27 -174l-145 -277h-113z" />
<glyph unicode="&#x201a;" horiz-adv-x="460" d="M29 -205l71 451h215l-28 -174l-146 -277h-112z" />
<glyph unicode="&#x201c;" horiz-adv-x="829" d="M217 983l27 174l145 277h113l-70 -451h-215zM586 983l26 174l146 277h112l-69 -451h-215z" />
<glyph unicode="&#x201d;" horiz-adv-x="829" d="M217 983l70 451h215l-27 -174l-145 -277h-113zM586 983l69 451h215l-26 -174l-146 -277h-112z" />
<glyph unicode="&#x201e;" horiz-adv-x="829" d="M29 -205l71 451h215l-28 -174l-146 -277h-112zM397 -205l72 451h215l-29 -174l-145 -277h-113z" />
<glyph unicode="&#x2026;" horiz-adv-x="1423" d="M61 0l39 246h215l-39 -246h-215zM543 0l39 246h215l-39 -246h-215zM1024 0l39 246h215l-39 -246h-215z" />
<glyph unicode="&#x202f;" horiz-adv-x="385" />
<glyph unicode="&#x2039;" horiz-adv-x="686" d="M145 532l318 451h194l-16 -92l-260 -359l147 -358l-14 -92h-195z" />
<glyph unicode="&#x203a;" horiz-adv-x="686" d="M74 82l14 92l262 358l-149 359l16 92h195l174 -451l-318 -450h-194z" />
<glyph unicode="&#x205f;" horiz-adv-x="481" />
<glyph unicode="&#x20ac;" horiz-adv-x="1259" d="M74 471l26 164h164l25 164h-164l27 164h163l27 163q24 144 129.5 226t286.5 82h583l-14 -93l-72 -71h-522q-61 0 -108 -41t-58 -103l-26 -163h491l-26 -164h-492l-25 -164h492l-27 -164h-491l-27 -164q-10 -61 24.5 -102t96.5 -41h584l-25 -164h-584q-181 0 -263 82 t-58 225l27 164h-164z" />
<glyph unicode="&#x2122;" horiz-adv-x="1771" d="M154 1300l20 134h676l-14 -93l-48 -41h-204l-86 -542h-185l86 542h-245zM784 758l13 71l176 605h235l76 -430h10l211 430h236l-12 -605l-13 -71h-174l39 502h-10l-211 -420h-195l-75 420h-11l-121 -502h-174z" />
<glyph unicode="&#x25fc;" horiz-adv-x="1085" d="M0 0v1085h1085v-1085h-1085z" />
</font>
</defs>
</svg>
